<svg xmlns="http://www.w3.org/2000/svg" xmlns:xlink="http://www.w3.org/1999/xlink" viewBox="0 0 375 667">
<defs>
<style>.a{clip-path:url(#e);}.b,.c,.d,.e,.g{fill:#fff;}.b{font-size:16px;font-family:Roboto-Regular, Roboto;}.c{font-size:20px;}.c,.d,.g{font-family:Roboto-Medium, Roboto;font-weight:500;}.d{font-size:18px;}.f{fill:#01579b;}.g{font-size:14px;}.h{fill:url(#a);}.i{filter:url(#b);}</style>
<linearGradient id="a" x2="1" y2="1" gradientUnits="objectBoundingBox">
<stop offset="0" stop-color="#039be5"/>
<stop offset="1" stop-color="#0085c6"/>
</linearGradient>
<filter id="b" x="0" y="478" width="274" height="69" filterUnits="userSpaceOnUse">
<feOffset dy="8" input="SourceAlpha"/>
<feGaussianBlur stdDeviation="4" result="c"/>
<feFlood flood-opacity="0.149"/>
<feComposite operator="in" in2="c"/>
<feComposite in="SourceGraphic"/>
</filter>
<clipPath id="e">
<rect width="375" height="667"/>
</clipPath>
</defs>
<g id="d" class="a">
<rect class="h" width="375" height="667"/>
<text class="b" transform="translate(58 385)">
<tspan x="11.926" y="15">Renseigne ton profil personnalisé </tspan>
<tspan x="3.762" y="34">afin de participer à des évènements</tspan>
<tspan x="41.309" y="53">sur mesure autour de toi.</tspan>
</text>
<text class="c" transform="translate(63 349)">
<tspan x="57.222" y="19">Bonjour Coline,</tspan>
</text>
<g transform="translate(0 50)">
<text class="d" transform="translate(63 214)">
<tspan x="40.498" y="17">La culture spontanée</tspan>
</text>
<path class="e" d="M20.41,32.232H4.877V48.445H0V11.734H22.924v3.987H4.877V28.28H20.41Z" transform="translate(120 149.812)"/>
<path class="e" d="M19.438,37.133a8.77,8.77,0,0,1-3.278,2.355,12.183,12.183,0,0,1-4.784.85,11.573,11.573,0,0,1-3.684-.563,7.1,7.1,0,0,1-2.838-1.792,8.122,8.122,0,0,1-1.842-3.148,14.754,14.754,0,0,1-.649-4.653V12.556H7.055V30.228a9.278,9.278,0,0,0,.429,3.033,4.912,4.912,0,0,0,1.158,1.9,3.658,3.658,0,0,0,1.622.954,6.519,6.519,0,0,0,1.888.264,8.554,8.554,0,0,0,4.6-1.08,6.464,6.464,0,0,0,2.56-2.9V12.556h4.7V39.833H19.543Z" transform="translate(145.02 158.435)"/>
<path class="e" d="M9.576,50.292H4.885V11.559H9.576Z" transform="translate(171.701 147.977)"/>
<path class="e" d="M5.844,26.426a20.324,20.324,0,0,1,.741-5.688A12.9,12.9,0,0,1,8.751,16.35a10.093,10.093,0,0,1,3.417-2.838,10.043,10.043,0,0,1,4.529-1,10.578,10.578,0,0,1,4.552.908,8.967,8.967,0,0,1,3.3,2.62l.243-3.022h4.286v26.7a12.742,12.742,0,0,1-.846,4.8,9.852,9.852,0,0,1-2.4,3.55,10.511,10.511,0,0,1-3.684,2.206,14.289,14.289,0,0,1-7.182.506A15.431,15.431,0,0,1,12.18,50a12.023,12.023,0,0,1-2.7-1.448,8.694,8.694,0,0,1-2.212-2.241l2.444-2.8a11.184,11.184,0,0,0,1.772,1.769,9.29,9.29,0,0,0,1.842,1.138,8.355,8.355,0,0,0,1.877.62,9.784,9.784,0,0,0,1.9.2,9.124,9.124,0,0,0,3-.471,6.072,6.072,0,0,0,3.765-3.677,9.244,9.244,0,0,0,.5-3.137V37.583a9.252,9.252,0,0,1-3.255,2.39,11.023,11.023,0,0,1-4.437.827A9.56,9.56,0,0,1,12.2,39.766,10.194,10.194,0,0,1,8.8,36.882,13.7,13.7,0,0,1,6.62,32.493a19.1,19.1,0,0,1-.753-5.527v-.54Zm4.726.529a16.954,16.954,0,0,0,.417,3.838,9.726,9.726,0,0,0,1.286,3.137,6.267,6.267,0,0,0,5.525,2.9,7.992,7.992,0,0,0,2.247-.3,6.926,6.926,0,0,0,1.8-.827,6.168,6.168,0,0,0,1.413-1.264,8.643,8.643,0,0,0,1.066-1.609V20.371a8.8,8.8,0,0,0-1.066-1.551,6.072,6.072,0,0,0-1.413-1.241,6.3,6.3,0,0,0-1.784-.816,8.162,8.162,0,0,0-2.2-.287,6.539,6.539,0,0,0-3.313.793,6.625,6.625,0,0,0-2.259,2.16,9.573,9.573,0,0,0-1.3,3.16,16.953,16.953,0,0,0-.417,3.838v.529Z" transform="translate(181.851 157.974)"/>
<path class="e" d="M25.527,37.133a8.77,8.77,0,0,1-3.278,2.355,12.183,12.183,0,0,1-4.784.85,11.573,11.573,0,0,1-3.684-.563,7.1,7.1,0,0,1-2.838-1.792A8.122,8.122,0,0,1,9.1,34.835a14.754,14.754,0,0,1-.649-4.653V12.556h4.691V30.228a9.278,9.278,0,0,0,.429,3.033,4.912,4.912,0,0,0,1.158,1.9,3.658,3.658,0,0,0,1.622.954,6.519,6.519,0,0,0,1.888.264,8.554,8.554,0,0,0,4.6-1.08,6.464,6.464,0,0,0,2.56-2.9V12.556h4.7V39.833H25.632Z" transform="translate(209.464 158.435)"/>
<path class="e" d="M24.236,17.189a11.269,11.269,0,0,0-1.135-.138c-.348-.023-.741-.034-1.193-.034a6.867,6.867,0,0,0-3.973,1.057,6.45,6.45,0,0,0-2.305,2.85V40.284H10.938V13.007h4.576l.081,3.148a8.286,8.286,0,0,1,2.664-2.666,7.282,7.282,0,0,1,3.881-.977,6.8,6.8,0,0,1,1.182.115,3.639,3.639,0,0,1,.915.241v4.32Z" transform="translate(235.764 157.984)"/>
<g transform="translate(138 55)">
<path class="e" d="M25,49.73H40v44A50.014,50.014,0,0,1,25,1.42Z"/><path class="e" d="M100,44.73a50.024,50.024,0,0,1-59.47,49.1L75,34.73H55L72.36,0A50,50,0,0,1,100,44.73Z"/>
</g>
</g>
<g transform="translate(0 -40)">
<a xlink:href="../walkthrough01.html" >
<g class="i" transform="matrix(1, 0, 0, 1, 0, 40)">
<path class="f" d="M22.5,0h205a22.5,22.5,0,0,1,0,45H22.5a22.5,22.5,0,0,1,0-45Z" transform="translate(63 482)"/>
</g>
<text class="g" transform="translate(188 550)">
<tspan x="-43.483" y="0">COMMENCER</tspan>
</text>
</a>
</g></g></svg>