<svg xmlns="http://www.w3.org/2000/svg" xmlns:xlink="http://www.w3.org/1999/xlink" viewBox="475 0 375 667"><defs><style>.a{clip-path:url(#b);}.b{fill:#bf9322;}.c,.e,.f,.h,.i{fill:#fff;}.c,.g{opacity:0.5;}.d,.g{fill:none;}.f{font-size:14px;font-family:Roboto-Medium, Roboto;font-weight:500;}.g{stroke:#fff;stroke-width:1px;}.h{font-size:30px;font-family:HelveticaNeue, Helvetica Neue;}.i{font-size:16px;font-family:Roboto-Regular, Roboto;}.j{fill:#fbc02d;}</style><clipPath id="b"><rect x="475" width="375" height="667"/></clipPath></defs><g id="a" class="a"><rect class="j" x="475" width="375" height="667"/><circle class="b" cx="5" cy="5" r="5" transform="translate(656 632)"/><circle class="b" cx="5" cy="5" r="5" transform="translate(676 632)"/><circle class="c" cx="5" cy="5" r="5" transform="translate(636 632)"/><g transform="translate(513 100)"><path class="d" d="M0,0H300V300H0Z"/><path class="b" d="M183.25,3A74.855,74.855,0,0,0,127,29.125,74.855,74.855,0,0,0,70.75,3C32.25,3,2,33.25,2,71.75,2,119,44.5,157.5,108.875,216L127,232.375l18.125-16.5C209.5,157.5,252,119,252,71.75,252,33.25,221.75,3,183.25,3Zm-55,194.375-1.25,1.25-1.25-1.25C66.25,143.5,27,107.875,27,71.75,27,46.75,45.75,28,70.75,28c19.25,0,38,12.375,44.625,29.5H138.75C145.25,40.375,164,28,183.25,28c25,0,43.75,18.75,43.75,43.75C227,107.875,187.75,143.5,128.25,197.375Z" transform="translate(23 34.5)"/></g><g transform="translate(787 625.25)"><path class="e" d="M8.59,16.34l4.58-4.59L8.59,7.16,10,5.75l6,6-6,6Z"/><path class="d" d="M0-.25H24v24H0Z"/></g><text class="f" transform="translate(515 642)"><tspan x="0" y="0">IGNORER</tspan></text><line class="g" x2="295" transform="translate(515 607.5)"/><text class="h" transform="translate(516 455)"><tspan x="0" y="0">Ajuste tes centres </tspan><tspan x="0" y="36">d’intérêt</tspan></text><text class="i" transform="translate(515 517)"><tspan x="0" y="15">Réponds à de très simples </tspan><tspan x="0" y="34">questions afin de personnaliser</tspan><tspan x="0" y="53">ton expérience.</tspan></text></g></svg>