<svg xmlns="http://www.w3.org/2000/svg" xmlns:xlink="http://www.w3.org/1999/xlink" viewBox="954 0 375 667">
<defs>
<style>.a{clip-path:url(#b);}.b{fill:#bf9322;}.c,.e,.g,.h,.i{fill:#fff;}.d,.f{fill:none;}.e{font-size:14px;font-family:Roboto-Medium, Roboto;font-weight:500;}.f{stroke:#fff;stroke-width:1px;}.f,.i{opacity:0.5;}.g{font-size:30px;font-family:HelveticaNeue, Helvetica Neue;}.h{font-size:16px;font-family:Roboto-Regular, Roboto;}.j{fill:#fbc02d;}</style>
<clipPath id="b">
<rect x="954" width="375" height="667"/>
</clipPath>
</defs>
<g id="a" class="a">
<rect class="j" x="954" width="375" height="667"/>
<a xlink:href="../walkthrough03.html" >
<circle class="b" cx="5" cy="5" r="5" transform="translate(1155 632)"/>
</a>
<g transform="translate(1266 625.25)">
<a xlink:href="../walkthrough03.html" >
<path class="c" d="M8.59,16.34l4.58-4.59L8.59,7.16,10,5.75l6,6-6,6Z"/>
</a>
<path class="d" d="M0-.25H24v24H0Z"/>
</g>
<a xlink:href="../ci01.html" >
<text class="e" transform="translate(994 642)">
<tspan x="0" y="0">IGNORER</tspan>
</text>
</a>
<line class="f" x2="295" transform="translate(996 607.5)"/>
<text class="g" transform="translate(994 455)">
<tspan x="0" y="0">Participe à des</tspan>
<tspan x="0" y="36">évènements</tspan>
</text><g transform="translate(992 100)">
<path class="b" d="M126.875,2A125,125,0,1,0,252,127,124.859,124.859,0,0,0,126.875,2ZM127,227A100,100,0,1,1,227,127,99.972,99.972,0,0,1,127,227Zm12.5-125.75,13.25,13.25L166,101.25l13.25,13.25,13.25-13.25L166,74.75Zm-51.5,0,13.25,13.25,13.25-13.25L88,74.75l-26.5,26.5L74.75,114.5Zm39,94.5A68.7,68.7,0,0,0,190.875,152H63.125A68.7,68.7,0,0,0,127,195.75Z" transform="translate(23 23)"/>
<path class="d" d="M0,0H300V300H0Z"/>
</g>
<text class="h" transform="translate(994 517)">
<tspan x="0" y="15">Sélectionne ceux qui te plaisent</tspan>
<tspan x="0" y="34">le plus autour de toi et profite !</tspan>
</text>
<circle class="i" cx="5" cy="5" r="5" transform="translate(1135 632)"/>
<a xlink:href="../walkthrough01.html" >
<circle class="b" cx="5" cy="5" r="5" transform="translate(1115 632)"/>
</a>
</g>
</svg>