<svg xmlns="http://www.w3.org/2000/svg" xmlns:xlink="http://www.w3.org/1999/xlink" viewBox="1425 0 375 667"><defs><style>.a{clip-path:url(#b);}.b{fill:#bf9322;}.c,.e{fill:none;}.c{stroke:#fff;stroke-width:1px;}.c,.g{opacity:0.5;}.d,.f,.g,.h{fill:#fff;}.d{font-size:30px;font-family:HelveticaNeue, Helvetica Neue;}.f{font-size:14px;font-family:Roboto-Medium, Roboto;font-weight:500;}.h{font-size:16px;font-family:Roboto-Regular, Roboto;}.i{fill:#fbc02d;}</style><clipPath id="b"><rect x="1425" width="375" height="667"/></clipPath></defs><g id="a" class="a"><rect class="i" x="1425" width="375" height="667"/><circle class="b" cx="5" cy="5" r="5" transform="translate(1606 632)"/><line class="c" x2="295" transform="translate(1465 607.5)"/><text class="d" transform="translate(1465 455)"><tspan x="0" y="0">Partage les avec</tspan><tspan x="0" y="36">tes amis</tspan></text><g transform="translate(1463 100)"><path class="e" d="M0,0H300V300H0Z"/><path class="b" d="M190.5,178a36.4,36.4,0,0,0-24.5,9.625L76.875,135.75A40.919,40.919,0,0,0,78,127a40.919,40.919,0,0,0-1.125-8.75L165,66.875A37.416,37.416,0,1,0,153,39.5a40.919,40.919,0,0,0,1.125,8.75L66,99.625a37.5,37.5,0,1,0,0,54.75l89,52a35.265,35.265,0,0,0-1,8.125A36.5,36.5,0,1,0,190.5,178Z" transform="translate(34.5 23)"/></g><text class="f" transform="translate(1759 642)"><tspan x="-18.491" y="0">OK</tspan></text><circle class="g" cx="5" cy="5" r="5" transform="translate(1626 632)"/><circle class="b" cx="5" cy="5" r="5" transform="translate(1586 632)"/><text class="h" transform="translate(1465 517)"><tspan x="0" y="15">Évalue les évènements auxquels</tspan><tspan x="0" y="34">tu as participé et partage les</tspan><tspan x="0" y="53">avec tes contacts.</tspan></text></g></svg>