<svg xmlns="http://www.w3.org/2000/svg" xmlns:xlink="http://www.w3.org/1999/xlink" viewBox="2850 0 375 735"><defs><style>.a{clip-path:url(#d);}.b{fill:#b3b3b3;}.c{fill:none;}.d,.e,.g,.i,.j{fill:#fff;}.d{fill-rule:evenodd;}.e,.i{font-size:14px;}.e{font-family:Roboto-Regular, Roboto;}.f{fill:#01579b;}.g{font-size:24px;font-family:Roboto-Light, Roboto;font-weight:300;}.h{fill:#0085c6;}.i{font-family:Roboto-Medium, Roboto;font-weight:500;}.k{fill:#f2f2f2;}.l{filter:url(#a);}</style><filter id="a" x="2901" y="646" width="274" height="69" filterUnits="userSpaceOnUse"><feOffset dy="8" input="SourceAlpha"/><feGaussianBlur stdDeviation="4" result="b"/><feFlood flood-opacity="0.149"/><feComposite operator="in" in2="b"/><feComposite in="SourceGraphic"/></filter><clipPath id="d"><rect x="2850" width="375" height="735"/></clipPath></defs><g id="c" class="a"><rect class="k" x="2850" width="375" height="735"/><path class="b" d="M0,0H180V180H0Z" transform="translate(2855 410)"/><g transform="translate(2933 430)"><rect class="c" width="24" height="24"/><path class="d" d="M12,2A10,10,0,1,0,22,12,10.029,10.029,0,0,0,12,2Zm0,18a8,8,0,1,1,8-8,8.024,8.024,0,0,1-8,8Z"/></g><text class="e" transform="translate(2905 567.322)"><tspan x="0" y="0">50 € ou moins</tspan></text><path class="b" d="M0,0H180V180H0Z" transform="translate(3040 410)"/><text class="e" transform="translate(3130 567.322)"><tspan x="-48.07" y="0">100 € ou moins</tspan></text><g transform="translate(3102 467)"><path class="c" d="M0,0H60V60H0Z"/></g><g transform="translate(2788 -672)"><rect class="f" width="375" height="220" transform="translate(62 672)"/><text class="g" transform="translate(102 767.987)"><tspan x="0" y="0">Quel budget mets tu</tspan><tspan x="0" y="28">dans chaque sortie ?</tspan></text><text class="e" transform="translate(102 812)"><tspan x="0" y="13">Sélectionne un budget moyen pour une sortie,</tspan><tspan x="0" y="29">tu pourras modifier ton choix plus tard dans</tspan><tspan x="0" y="45">ton profil.</tspan></text></g><path class="h" d="M0,0H180V180H0Z" transform="translate(2855 225)"/><text class="e" transform="translate(2901 382.322)"><tspan x="0" y="0">10 € ou moins</tspan></text><path class="b" d="M0,0H180V180H0Z" transform="translate(3040 225)"/><text class="e" transform="translate(3130 382.322)"><tspan x="-44.14" y="0">30 € ou moins</tspan></text><g transform="translate(3102 282)"><path class="c" d="M0,0H60V60H0Z"/></g><g transform="translate(2850 128)"><g class="l" transform="matrix(1, 0, 0, 1, -2850, -128)"><path class="f" d="M22.5,0h205a22.5,22.5,0,0,1,0,45H22.5a22.5,22.5,0,0,1,0-45Z" transform="translate(2913 650)"/></g><text class="i" transform="translate(188 550)"><tspan x="-27.593" y="0">VALIDER</tspan></text></g><g transform="translate(3118 430)"><rect class="c" width="24" height="24"/><path class="d" d="M12,2A10,10,0,1,0,22,12,10.029,10.029,0,0,0,12,2Zm0,18a8,8,0,1,1,8-8,8.024,8.024,0,0,1-8,8Z"/></g><g transform="translate(3118 245)"><rect class="c" width="24" height="24"/><path class="d" d="M12,2A10,10,0,1,0,22,12,10.029,10.029,0,0,0,12,2Zm0,18a8,8,0,1,1,8-8,8.024,8.024,0,0,1-8,8Z"/></g><g transform="translate(2935 247)"><g transform="translate(-2283 -989)"><g transform="translate(2065 892)"><g transform="translate(0 43)"><g transform="translate(216 52)"><rect class="c" width="24" height="24"/><path class="d" d="M12,7a5,5,0,1,0,5,5,4.951,4.951,0,0,0-5-5Zm0-5A10,10,0,1,0,22,12,10.029,10.029,0,0,0,12,2Zm0,18a8,8,0,1,1,8-8,8.024,8.024,0,0,1-8,8Z"/></g></g></g></g></g><g transform="translate(2933 300)"><path class="j" d="M15,18.5A6.48,6.48,0,0,1,9.24,15H15V13H8.58a6.29,6.29,0,0,1,0-2H15V9H9.24a6.487,6.487,0,0,1,9.99-1.93L21,5.3A8.987,8.987,0,0,0,6.52,9H3v2H6.06a8.363,8.363,0,0,0,0,2H3v2H6.52A8.987,8.987,0,0,0,21,18.7l-1.78-1.77A6.406,6.406,0,0,1,15,18.5Z"/><path class="c" d="M0,0H24V24H0Z"/></g><path class="j" d="M20.5,25.6a9.45,9.45,0,0,1-8.4-5.1h8.4V17.583H11.137a9.173,9.173,0,0,1,0-2.917H20.5V11.75H12.1A9.461,9.461,0,0,1,26.669,8.935L29.25,6.354a13.106,13.106,0,0,0-21.117,5.4H3v2.917H7.463a12.2,12.2,0,0,0,0,2.917H3V20.5H8.133A13.106,13.106,0,0,0,29.25,25.9l-2.6-2.581A9.341,9.341,0,0,1,20.5,25.6Z" transform="translate(3114.375 296)"/><path class="j" d="M29.667,37.444a14.4,14.4,0,0,1-12.8-7.778h12.8V25.222H15.4a13.978,13.978,0,0,1,0-4.444H29.667V16.333h-12.8a14.416,14.416,0,0,1,22.2-4.289L43,8.111a19.971,19.971,0,0,0-32.178,8.222H3v4.444H9.8a18.585,18.585,0,0,0,0,4.444H3v4.444h7.822A19.971,19.971,0,0,0,43,37.889l-3.956-3.933A14.234,14.234,0,0,1,29.667,37.444Z" transform="translate(2922.375 477)"/><path class="j" d="M43,54.667A21.6,21.6,0,0,1,23.8,43H43V36.333H21.6a20.967,20.967,0,0,1,0-6.667H43V23H23.8a21.624,21.624,0,0,1,33.3-6.433l5.9-5.9A29.956,29.956,0,0,0,14.733,23H3v6.667H13.2a27.878,27.878,0,0,0,0,6.667H3V43H14.733A29.956,29.956,0,0,0,63,55.333l-5.933-5.9A21.352,21.352,0,0,1,43,54.667Z" transform="translate(3097.375 467)"/></g></svg>