<svg xmlns="http://www.w3.org/2000/svg" xmlns:xlink="http://www.w3.org/1999/xlink" viewBox="5187 711 375 667"><defs><style>.a{clip-path:url(#e);}.b,.c,.d,.f{fill:#fff;}.b{font-size:16px;font-family:Roboto-Regular, Roboto;}.c{font-size:20px;}.c,.f{font-family:Roboto-Medium, Roboto;font-weight:500;}.e{fill:#01579b;}.f{font-size:14px;}.g{fill:url(#a);}.h{filter:url(#b);}</style><linearGradient id="a" x2="1" y2="1" gradientUnits="objectBoundingBox"><stop offset="0" stop-color="#039be5"/><stop offset="1" stop-color="#0085c6"/></linearGradient><filter id="b" x="5238" y="1189" width="274" height="69" filterUnits="userSpaceOnUse"><feOffset dy="8" input="SourceAlpha"/><feGaussianBlur stdDeviation="4" result="c"/><feFlood flood-opacity="0.149"/><feComposite operator="in" in2="c"/><feComposite in="SourceGraphic"/></filter><clipPath id="e"><rect x="5187" y="711" width="375" height="667"/></clipPath></defs><g id="d" class="a"><rect class="g" x="5187" y="711" width="375" height="667"/><text class="b" transform="translate(5250 1095)"><tspan x="0.676" y="15">Une interview en quelques secondes </tspan><tspan x="9.113" y="34">ça te dit ? Réponds spontanément </tspan><tspan x="31.934" y="53">entre les deux propositions. </tspan></text><text class="c" transform="translate(5250 1059)"><tspan x="18.643" y="19">Dis nous en plus sur toi,</tspan></text><text class="c" transform="translate(5250 930)"><tspan x="87.041" y="19">Coline P.</tspan></text><path class="d" d="M52,2a50,50,0,1,0,50,50A50.018,50.018,0,0,0,52,2Zm0,15A15,15,0,1,1,37,32,14.98,14.98,0,0,1,52,17Zm0,71A36,36,0,0,1,22,71.9c.15-9.95,20-15.4,30-15.4,9.95,0,29.85,5.45,30,15.4A36,36,0,0,1,52,88Z" transform="translate(5323 808)"/><g transform="translate(5187 671)"><g class="h" transform="matrix(1, 0, 0, 1, -5187, -671)"><path class="e" d="M22.5,0h205a22.5,22.5,0,0,1,0,45H22.5a22.5,22.5,0,0,1,0-45Z" transform="translate(5250 1193)"/></g><text class="f" transform="translate(188 550)"><tspan x="-39.002" y="0">C’EST PARTI</tspan></text></g></g></svg>