<svg xmlns="http://www.w3.org/2000/svg" xmlns:xlink="http://www.w3.org/1999/xlink" viewBox="3770 0 375 667"><defs><style>.a{clip-path:url(#c);}.b{fill:none;}.c{fill:#01579b;}.d,.e{fill:#fff;}.e{font-size:16px;font-family:Roboto-Regular, Roboto;}.f{fill:url(#a);}</style><linearGradient id="a" x2="1" y2="1" gradientUnits="objectBoundingBox"><stop offset="0" stop-color="#039be5"/><stop offset="1" stop-color="#0085c6"/></linearGradient><clipPath id="c"><rect x="3770" width="375" height="667"/></clipPath></defs><g id="b" class="a"><rect class="f" x="3770" width="375" height="667"/><path class="b" d="M0,0H60V60H0Z" transform="translate(3900 149)"/><path class="c" d="M27,2A25,25,0,1,0,52,27,25.009,25.009,0,0,0,27,2Zm0,36.25A11.25,11.25,0,1,1,38.25,27,11.235,11.235,0,0,1,27,38.25ZM27,24.5A2.5,2.5,0,1,0,29.5,27,2.507,2.507,0,0,0,27,24.5Z" transform="translate(3906 152)"/><path class="c" d="M48,8V3H3V8L23,30.5V43H10.5v5h30V43H28V30.5ZM14.075,13,9.65,8H41.375l-4.45,5Z" transform="translate(3828.417 505.89) rotate(-13)"/><path class="c" d="M23,19.5H18V2H13V19.5H8V2H3V19.5a9.965,9.965,0,0,0,9.375,9.925V52h6.25V29.425A9.965,9.965,0,0,0,28,19.5V2H23ZM35.5,12V32h6.25V52H48V2C41.1,2,35.5,7.6,35.5,12Z" transform="translate(4010.471 75.414) rotate(22)"/><path class="b" d="M0,0H60V60H0Z" transform="translate(4044 548)"/><path class="c" d="M25.5,53.5A22.5,22.5,0,0,0,48,31,22.5,22.5,0,0,0,25.5,53.5ZM9.5,24.125a6.257,6.257,0,0,0,9.8,5.15l-.05.475a6.25,6.25,0,0,0,12.5,0l-.05-.475a6.161,6.161,0,0,0,3.55,1.1A6.236,6.236,0,0,0,37.925,18.5,6.241,6.241,0,1,0,31.7,7.725l.05-.475a6.25,6.25,0,0,0-12.5,0l.05.475a6.161,6.161,0,0,0-3.55-1.1A6.236,6.236,0,0,0,13.075,18.5,6.228,6.228,0,0,0,9.5,24.125Zm16-11.875a6.25,6.25,0,1,1-6.25,6.25A6.252,6.252,0,0,1,25.5,12.25ZM3,31A22.5,22.5,0,0,0,25.5,53.5,22.5,22.5,0,0,0,3,31Z" transform="translate(4060.5 547.5)"/><path class="c" d="M39,3V8H34V3H14V8H9V3H4V48H9V43h5v5H34V43h5v5h5V3ZM14,38H9V33h5Zm0-10H9V23h5Zm0-10H9V13h5ZM39,38H34V33h5Zm0-10H34V23h5Zm0-10H34V13h5Z" transform="matrix(0.914, 0.407, -0.407, 0.914, 3816.447, 46.943)"/><path class="c" d="M39,3V8H34V3H14V8H9V3H4V48H9V43h5v5H34V43h5v5h5V3ZM14,38H9V33h5Zm0-10H9V23h5Zm0-10H9V13h5ZM39,38H34V33h5Zm0-10H34V23h5Zm0-10H34V13h5Z" transform="translate(4123.703 273.466) rotate(-24)"/><path class="b" d="M0,0H60V60H0Z" transform="translate(3798 50)"/><path class="b" d="M0,0H60V60H0Z" transform="translate(4059 369)"/><path class="c" d="M14.5,30.5A7.49,7.49,0,0,0,7,38a5.073,5.073,0,0,1-5,5,12.935,12.935,0,0,0,10,5A10,10,0,0,0,22,38,7.49,7.49,0,0,0,14.5,30.5ZM48.775,7.079l-3.35-3.35a2.49,2.49,0,0,0-3.525,0l-22.4,22.4L26.375,33l22.4-22.4A2.49,2.49,0,0,0,48.775,7.079Z" transform="translate(4069 371.496)"/><path class="b" d="M0,0H79.5V79.5H0Z" transform="translate(3797 268.5)"/><path class="c" d="M39.543,78.724c20.18,0,36.543-14.916,36.543-33.31C55.906,45.414,39.543,60.33,39.543,78.724ZM13.557,35.236c0,5.108,4.548,9.253,10.151,9.253a10.8,10.8,0,0,0,5.766-1.629l-.081.7c0,5.108,4.548,9.253,10.151,9.253s10.151-4.145,10.151-9.253l-.081-.7a10.694,10.694,0,0,0,5.766,1.629c5.6,0,10.151-4.145,10.151-9.253a9.207,9.207,0,0,0-5.806-8.328,9.207,9.207,0,0,0,5.806-8.328c0-5.108-4.548-9.253-10.151-9.253a10.8,10.8,0,0,0-5.766,1.629l.081-.7C49.693,5.145,45.146,1,39.543,1S29.392,5.145,29.392,10.253l.081.7a10.694,10.694,0,0,0-5.766-1.629c-5.6,0-10.151,4.145-10.151,9.253a9.207,9.207,0,0,0,5.806,8.328,9.207,9.207,0,0,0-5.806,8.328Zm25.986-17.58c5.6,0,10.151,4.145,10.151,9.253s-4.548,9.253-10.151,9.253-10.151-4.145-10.151-9.253S33.939,17.655,39.543,17.655ZM3,45.414c0,18.395,16.363,33.31,36.543,33.31C39.543,60.33,23.18,45.414,3,45.414Z" transform="translate(3767.239 281.127) rotate(-20)"/><path class="b" d="M0,0H138.41V138.41H0Z" transform="matrix(0.998, 0.07, -0.07, 0.998, 3909.996, -60.069)"/><path class="c" d="M30.835,66.45a17.278,17.278,0,0,0-17.3,17.3c0,7.555-6.69,11.534-11.534,11.534A29.838,29.838,0,0,0,25.068,106.82,23.062,23.062,0,0,0,48.137,83.751,17.278,17.278,0,0,0,30.835,66.45ZM109.9,12.412l-7.728-7.728a5.743,5.743,0,0,0-8.132,0L42.37,56.358l15.86,15.859L109.9,20.544A5.743,5.743,0,0,0,109.9,12.412Z" transform="matrix(0.998, 0.07, -0.07, 0.998, 3918.51, -45.15)"/><path class="c" d="M65.646,3v8.807H56.84V3H21.613v8.807H12.807V3H4V82.26h8.807V73.453h8.807V82.26H56.84V73.453h8.807V82.26h8.807V3ZM21.613,64.646H12.807V55.84h8.807Zm0-17.613H12.807V38.227h8.807Zm0-17.613H12.807V20.613h8.807ZM65.646,64.646H56.84V55.84h8.807Zm0-17.613H56.84V38.227h8.807Zm0-17.613H56.84V20.613h8.807Z" transform="translate(3938.092 589.987) rotate(14)"/><path class="b" d="M0,0H105.68V105.68H0Z" transform="translate(3913 588)"/><path class="b" d="M0,0H29.41V29.41H0Z" transform="translate(4073.59 278.59)"/><path class="c" d="M14.254,2A12.254,12.254,0,1,0,26.509,14.254,12.259,12.259,0,0,0,14.254,2Zm0,17.769a5.514,5.514,0,1,1,5.514-5.514A5.507,5.507,0,0,1,14.254,19.769Zm0-6.74a1.225,1.225,0,1,0,1.225,1.225A1.229,1.229,0,0,0,14.254,13.029Z" transform="translate(4057.041 294.041)"/><path class="c" d="M23.978,20.356H18.734V2H13.489V20.356H8.245V2H3V20.356a10.452,10.452,0,0,0,9.833,10.41V54.445h6.556V30.766a10.452,10.452,0,0,0,9.833-10.41V2H23.978Zm13.111-7.867V33.467h6.556V54.445H50.2V2C42.963,2,37.089,7.874,37.089,12.489Z" transform="translate(3754.799 428.204)"/><path class="c" d="M48,8V3H3V8L23,30.5V43H10.5v5h30V43H28V30.5ZM14.075,13,9.65,8H41.375l-4.45,5Z" transform="translate(4038.6 195.119) rotate(-34)"/><g transform="translate(3977 444)"><path class="b" d="M0,0H68V68H0Z"/><path class="c" d="M53,3H7.667V31.333A11.33,11.33,0,0,0,19,42.667H36A11.33,11.33,0,0,0,47.333,31.333v-8.5H53a5.647,5.647,0,0,0,5.667-5.667v-8.5A5.647,5.647,0,0,0,53,3Zm0,14.167H47.333v-8.5H53ZM2,54H53V48.333H2Z" transform="translate(-4.402 6.177) rotate(19)"/><path class="c" d="M30.935,3H5.215V19.075a6.428,6.428,0,0,0,6.43,6.43H21.29a6.428,6.428,0,0,0,6.43-6.43V14.252h3.215a3.2,3.2,0,0,0,3.215-3.215V6.215A3.2,3.2,0,0,0,30.935,3Zm0,8.037H27.72V6.215h3.215ZM2,31.935H30.935V28.72H2Z" transform="translate(-180.645 -273.057) rotate(-30)"/></g><path class="b" d="M0,0H48.435V48.435H0Z" transform="translate(3976 163.565)"/><path class="c" d="M28.235,13.1V2H16.127V13.1l6.054,6.054ZM13.1,16.127H2V28.235H13.1l6.054-6.054Zm3.027,15.136v11.1H28.235v-11.1l-6.054-6.054ZM31.263,16.127l-6.054,6.054,6.054,6.054h11.1V16.127Z" transform="translate(3809.036 596.601)"/><path class="c" d="M60.375,26.7V2H33.433V26.7L46.9,40.168ZM26.7,33.433H2V60.375H26.7L40.168,46.9ZM33.433,67.11v24.7H60.375V67.11L46.9,53.639ZM67.11,33.433,53.639,46.9,67.11,60.375h24.7V33.433Z" transform="translate(4098.036 15.156)"/><g transform="translate(3770)"><path class="d" d="M25,49.73H40v44A50.014,50.014,0,0,1,25,1.42Z" transform="translate(138 268)"/><path class="d" d="M100,44.73a50.024,50.024,0,0,1-59.47,49.1L75,34.73H55L72.36,0A50,50,0,0,1,100,44.73Z" transform="translate(138 268)"/><text class="e" transform="translate(58 383)"><tspan x="87.188" y="15">Recherche…</tspan></text></g><g transform="translate(3858 14)"><path class="b" d="M0,0H24V24H0Z"/><path class="c" d="M12,21.35l-1.45-1.32C5.4,15.36,2,12.28,2,8.5A5.447,5.447,0,0,1,7.5,3,5.988,5.988,0,0,1,12,5.09,5.988,5.988,0,0,1,16.5,3,5.447,5.447,0,0,1,22,8.5c0,3.78-3.4,6.86-8.55,11.54Z"/></g><g transform="translate(4088 448.191)"><path class="b" d="M0,0H67.809V67.809H0Z"/><path class="c" d="M30.254,54.845l-4.1-3.729C11.606,37.921,2,29.219,2,18.539A15.389,15.389,0,0,1,17.539,3,16.919,16.919,0,0,1,30.254,8.9,16.919,16.919,0,0,1,42.968,3,15.389,15.389,0,0,1,58.507,18.539c0,10.68-9.606,19.382-24.157,32.6Z" transform="translate(3.651 5.476)"/></g><path class="b" d="M0,0H47V47H0Z" transform="translate(3853 414)"/><path class="c" d="M21.583,38.935l-2.84-2.585C8.658,27.2,2,21.173,2,13.771A10.666,10.666,0,0,1,12.771,3a11.727,11.727,0,0,1,8.813,4.093A11.727,11.727,0,0,1,30.4,3,10.666,10.666,0,0,1,41.167,13.771c0,7.4-6.658,13.434-16.744,22.6Z" transform="translate(3854.917 416.875)"/><g transform="matrix(0.848, 0.53, -0.53, 0.848, 3868.74, 211.547)"><path class="b" d="M0,0H31.5V31.5H0Z"/><path class="c" d="M4.625,12.813V22H8.563V12.813Zm7.875,0V22h3.938V12.813ZM2,28.563H26.938V24.625H2Zm18.375-15.75V22h3.938V12.813ZM14.469,1,2,7.562v2.625H26.938V7.562Z" transform="translate(0.625 0.312)"/></g><g transform="translate(4037.306 8.014) rotate(-34)"><path class="b" d="M0,0H43.988V43.988H0Z"/><path class="c" d="M5.666,17.5v12.83h5.5V17.5Zm11,0v12.83h5.5V17.5ZM2,39.489H36.824v-5.5H2ZM27.66,17.5v12.83h5.5V17.5ZM19.412,1,2,10.164V13.83H36.824V10.164Z" transform="translate(1.666 0.833)"/></g></g></svg>