<svg xmlns="http://www.w3.org/2000/svg" xmlns:xlink="http://www.w3.org/1999/xlink" viewBox="4245 1427 375 667"><defs><style>.a{clip-path:url(#z);}.b{fill:#01579b;}.c,.d,.n{fill:#fff;}.d{font-size:14px;}.d,.l{font-family:Roboto-Medium, Roboto;font-weight:500;}.e{fill:#0085c6;}.f{fill:#fbc02d;}.g{fill:#b3b3b3;}.h{fill:#f2f2f2;}.i{fill:none;}.j{fill:gray;}.k,.l{fill:#3b3b3b;}.k{font-size:16px;}.k,.n{font-family:Roboto-Regular, Roboto;}.l,.n{font-size:20px;}.m{fill:#bf9322;}.o{filter:url(#w);}.p{filter:url(#u);}.q{filter:url(#s);}.r{filter:url(#q);}.s{filter:url(#o);}.t{filter:url(#m);}.u{filter:url(#k);}.v{filter:url(#i);}.w{filter:url(#g);}.x{filter:url(#e);}.y{filter:url(#c);}.z{filter:url(#a);}</style><filter id="a" x="4239" y="1425" width="387" height="116" filterUnits="userSpaceOnUse"><feOffset dy="4" input="SourceAlpha"/><feGaussianBlur stdDeviation="2" result="b"/><feFlood flood-opacity="0.239"/><feComposite operator="in" in2="b"/><feComposite in="SourceGraphic"/></filter><filter id="c" x="4239" y="1529" width="387" height="72" filterUnits="userSpaceOnUse"><feOffset dy="4" input="SourceAlpha"/><feGaussianBlur stdDeviation="2" result="d"/><feFlood flood-opacity="0.239"/><feComposite operator="in" in2="d"/><feComposite in="SourceGraphic"/></filter><filter id="e" x="4261" y="1705" width="168" height="63" filterUnits="userSpaceOnUse"><feOffset dy="3" input="SourceAlpha"/><feGaussianBlur stdDeviation="3" result="f"/><feFlood flood-opacity="0.161"/><feComposite operator="in" in2="f"/><feComposite in="SourceGraphic"/></filter><filter id="g" x="4261" y="1890" width="168" height="63" filterUnits="userSpaceOnUse"><feOffset dy="3" input="SourceAlpha"/><feGaussianBlur stdDeviation="3" result="h"/><feFlood flood-opacity="0.161"/><feComposite operator="in" in2="h"/><feComposite in="SourceGraphic"/></filter><filter id="i" x="4261" y="2075" width="168" height="63" filterUnits="userSpaceOnUse"><feOffset dy="3" input="SourceAlpha"/><feGaussianBlur stdDeviation="3" result="j"/><feFlood flood-opacity="0.161"/><feComposite operator="in" in2="j"/><feComposite in="SourceGraphic"/></filter><filter id="k" x="4540" y="1705" width="63" height="63" filterUnits="userSpaceOnUse"><feOffset dy="3" input="SourceAlpha"/><feGaussianBlur stdDeviation="3" result="l"/><feFlood flood-opacity="0.161"/><feComposite operator="in" in2="l"/><feComposite in="SourceGraphic"/></filter><filter id="m" x="4542" y="1432" width="53" height="53" filterUnits="userSpaceOnUse"><feOffset dy="3" input="SourceAlpha"/><feGaussianBlur stdDeviation="3" result="n"/><feFlood flood-opacity="0.161"/><feComposite operator="in" in2="n"/><feComposite in="SourceGraphic"/></filter><filter id="o" x="4540" y="1890" width="63" height="63" filterUnits="userSpaceOnUse"><feOffset dy="3" input="SourceAlpha"/><feGaussianBlur stdDeviation="3" result="p"/><feFlood flood-opacity="0.161"/><feComposite operator="in" in2="p"/><feComposite in="SourceGraphic"/></filter><filter id="q" x="4540" y="2075" width="63" height="63" filterUnits="userSpaceOnUse"><feOffset dy="3" input="SourceAlpha"/><feGaussianBlur stdDeviation="3" result="r"/><feFlood flood-opacity="0.161"/><feComposite operator="in" in2="r"/><feComposite in="SourceGraphic"/></filter><filter id="s" x="4485" y="1705" width="63" height="63" filterUnits="userSpaceOnUse"><feOffset dy="3" input="SourceAlpha"/><feGaussianBlur stdDeviation="3" result="t"/><feFlood flood-opacity="0.161"/><feComposite operator="in" in2="t"/><feComposite in="SourceGraphic"/></filter><filter id="u" x="4485" y="1890" width="63" height="63" filterUnits="userSpaceOnUse"><feOffset dy="3" input="SourceAlpha"/><feGaussianBlur stdDeviation="3" result="v"/><feFlood flood-opacity="0.161"/><feComposite operator="in" in2="v"/><feComposite in="SourceGraphic"/></filter><filter id="w" x="4485" y="2075" width="63" height="63" filterUnits="userSpaceOnUse"><feOffset dy="3" input="SourceAlpha"/><feGaussianBlur stdDeviation="3" result="x"/><feFlood flood-opacity="0.161"/><feComposite operator="in" in2="x"/><feComposite in="SourceGraphic"/></filter><clipPath id="z"><rect x="4245" y="1427" width="375" height="667"/></clipPath></defs><g id="y" class="a"><rect class="h" x="4245" y="1427" width="375" height="667"/><g class="z" transform="matrix(1, 0, 0, 1, 0, 0)"><path class="b" d="M0,0H375V104H0Z" transform="translate(4245 1427)"/></g><g class="y" transform="matrix(1, 0, 0, 1, 0, 0)"><path class="c" d="M0,0H375V60H0Z" transform="translate(4245 1531)"/></g><rect class="c" width="187.5" height="2" transform="translate(4245.5 1529)"/><text class="d" transform="translate(4344.5 1515.979)"><tspan x="-32.987" y="0">VUE LISTE</tspan></text><text class="d" transform="translate(4531.5 1515.979)"><tspan x="-36.425" y="0">VUE CARTE</tspan></text><path class="c" d="M0,0H365V180H0Z" transform="translate(4250 1596)"/><path class="c" d="M0,0H365V180H0Z" transform="translate(4250 1781)"/><path class="c" d="M0,0H365V180H0Z" transform="translate(4250 1966)"/><g class="x" transform="matrix(1, 0, 0, 1, 0, 0)"><rect class="b" width="150" height="45" rx="22.5" transform="translate(4270 1711)"/></g><g class="w" transform="matrix(1, 0, 0, 1, 0, 0)"><rect class="b" width="150" height="45" rx="22.5" transform="translate(4270 1896)"/></g><g class="v" transform="matrix(1, 0, 0, 1, 0, 0)"><rect class="b" width="150" height="45" rx="22.5" transform="translate(4270 2081)"/></g><g class="u" transform="matrix(1, 0, 0, 1, 0, 0)"><rect class="e" width="45" height="45" rx="22.5" transform="translate(4549 1711)"/></g><g class="t" transform="matrix(1, 0, 0, 1, 0, 0)"><rect class="f" width="35" height="35" rx="17.5" transform="translate(4551 1438)"/></g><g class="s" transform="matrix(1, 0, 0, 1, 0, 0)"><rect class="g" width="45" height="45" rx="22.5" transform="translate(4549 1896)"/></g><g class="r" transform="matrix(1, 0, 0, 1, 0, 0)"><rect class="g" width="45" height="45" rx="22.5" transform="translate(4549 2081)"/></g><text class="d" transform="translate(4345 1739)"><tspan x="-44.649" y="0">PLUS D’INFOS</tspan></text><text class="d" transform="translate(4345 1924)"><tspan x="-44.649" y="0">PLUS D’INFOS</tspan></text><text class="d" transform="translate(4345 2042)"><tspan x="-44.649" y="0">PLUS D’INFOS</tspan></text><g class="q" transform="matrix(1, 0, 0, 1, 0, 0)"><rect class="h" width="45" height="45" rx="22.5" transform="translate(4494 1711)"/></g><g class="p" transform="matrix(1, 0, 0, 1, 0, 0)"><rect class="h" width="45" height="45" rx="22.5" transform="translate(4494 1896)"/></g><g class="o" transform="matrix(1, 0, 0, 1, 0, 0)"><rect class="h" width="45" height="45" rx="22.5" transform="translate(4494 2081)"/></g><g transform="translate(4560 1722)"><path class="i" d="M0,0H24V24H0Z"/><path class="c" d="M12,21.35l-1.45-1.32C5.4,15.36,2,12.28,2,8.5A5.447,5.447,0,0,1,7.5,3,5.988,5.988,0,0,1,12,5.09,5.988,5.988,0,0,1,16.5,3,5.447,5.447,0,0,1,22,8.5c0,3.78-3.4,6.86-8.55,11.54Z"/></g><g transform="translate(4560 1907)"><path class="i" d="M0,0H24V24H0Z"/><path class="c" d="M12,21.35l-1.45-1.32C5.4,15.36,2,12.28,2,8.5A5.447,5.447,0,0,1,7.5,3,5.988,5.988,0,0,1,12,5.09,5.988,5.988,0,0,1,16.5,3,5.447,5.447,0,0,1,22,8.5c0,3.78-3.4,6.86-8.55,11.54Z"/></g><g transform="translate(4560 2025)"><path class="i" d="M0,0H24V24H0Z"/><path class="c" d="M12,21.35l-1.45-1.32C5.4,15.36,2,12.28,2,8.5A5.447,5.447,0,0,1,7.5,3,5.988,5.988,0,0,1,12,5.09,5.988,5.988,0,0,1,16.5,3,5.447,5.447,0,0,1,22,8.5c0,3.78-3.4,6.86-8.55,11.54Z"/></g><g transform="translate(4505 1722)"><path class="j" d="M19,6.41,17.59,5,12,10.59,6.41,5,5,6.41,10.59,12,5,17.59,6.41,19,12,13.41,17.59,19,19,17.59,13.41,12Z"/><path class="i" d="M0,0H24V24H0Z"/></g><g transform="translate(4505 1907)"><path class="j" d="M19,6.41,17.59,5,12,10.59,6.41,5,5,6.41,10.59,12,5,17.59,6.41,19,12,13.41,17.59,19,19,17.59,13.41,12Z"/><path class="i" d="M0,0H24V24H0Z"/></g><text class="k" transform="translate(4270 1652)"><tspan x="0" y="15">Exposition de l’Atelier National de </tspan><tspan x="0" y="34">Recherche Typographique…</tspan></text><text class="k" transform="translate(4270 1837)"><tspan x="0" y="15">Concept de micro-brasseries </tspan><tspan x="0" y="34">américaines made in Lyon.</tspan></text><text class="k" transform="translate(4270 2022)"><tspan x="0" y="15">Exposition de l’Atelier National de </tspan><tspan x="0" y="34">Recherche Typographique…</tspan></text><text class="l" transform="translate(4270 1616)"><tspan x="0" y="19">Musée imprimerie </tspan></text><text class="l" transform="translate(4270 1801)"><tspan x="0" y="19">Ninkasi Cordeliers</tspan></text><text class="l" transform="translate(4270 1986)"><tspan x="0" y="19">Musée imprimerie</tspan></text><g transform="translate(4545 1976)"><path class="i" d="M0,0H60V60H0Z"/><path class="h" d="M14.5,30.5A7.49,7.49,0,0,0,7,38a5.073,5.073,0,0,1-5,5,12.935,12.935,0,0,0,10,5A10,10,0,0,0,22,38,7.49,7.49,0,0,0,14.5,30.5ZM48.775,7.079l-3.35-3.35a2.49,2.49,0,0,0-3.525,0l-22.4,22.4L26.375,33l22.4-22.4A2.49,2.49,0,0,0,48.775,7.079Z" transform="translate(3 4.496)"/></g><rect class="f" width="375" height="60" transform="translate(4245 2034)"/><g transform="translate(4545 1606)"><path class="i" d="M0,0H60V60H0Z"/><path class="h" d="M14.5,30.5A7.49,7.49,0,0,0,7,38a5.073,5.073,0,0,1-5,5,12.935,12.935,0,0,0,10,5A10,10,0,0,0,22,38,7.49,7.49,0,0,0,14.5,30.5ZM48.775,7.079l-3.35-3.35a2.49,2.49,0,0,0-3.525,0l-22.4,22.4L26.375,33l22.4-22.4A2.49,2.49,0,0,0,48.775,7.079Z" transform="translate(3 4.496)"/></g><path class="h" d="M48,8V3H3V8L23,30.5V43H10.5v5h30V43H28V30.5ZM14.075,13,9.65,8H41.375l-4.45,5Z" transform="translate(4549.5 1795.5)"/><g transform="translate(4285 2049)"><path class="m" d="M14.5,2A12.5,12.5,0,1,0,27,14.5,12.5,12.5,0,0,0,14.5,2Zm0,3.75A3.75,3.75,0,1,1,10.75,9.5,3.745,3.745,0,0,1,14.5,5.75Zm0,17.75A9,9,0,0,1,7,19.475c.038-2.488,5-3.85,7.5-3.85s7.462,1.362,7.5,3.85A9,9,0,0,1,14.5,23.5Z" transform="translate(0.5 0.5)"/><path class="i" d="M0,0H30V30H0Z"/></g><g transform="translate(4413 2044)"><path class="i" d="M0,0H40V40H0Z"/><path class="c" d="M7,2V20.333h5v15l11.667-20H17L23.667,2Z" transform="translate(4.667 1.333)"/></g><g transform="translate(4484 2049)"><path class="i" d="M0,0H30V30H0Z"/><path class="m" d="M16,3A11.251,11.251,0,0,0,4.75,14.25H1l4.863,4.863.088.175L11,14.25H7.25a8.792,8.792,0,1,1,2.575,6.175L8.05,22.2A11.247,11.247,0,1,0,16,3ZM14.75,9.25V15.5l5.35,3.175.9-1.513-4.375-2.6V9.25Z" transform="translate(0.25 0.75)"/></g><g transform="translate(4351 2049)"><path class="m" d="M18.625,16.75h-.987l-.35-.337a8.137,8.137,0,1,0-.875.875l.337.35v.987L23,24.863,24.863,23Zm-7.5,0a5.625,5.625,0,1,1,5.625-5.625A5.617,5.617,0,0,1,11.125,16.75Z" transform="translate(0.75 0.75)"/><path class="i" d="M0,0H30V30H0Z"/></g><g transform="translate(4230 1546)"><path class="g" d="M21.5,3V5.5H19V3H9V5.5H6.5V3H4V25.5H6.5V23H9v2.5H19V23h2.5v2.5H24V3ZM9,20.5H6.5V18H9Zm0-5H6.5V13H9Zm0-5H6.5V8H9Zm12.5,10H19V18h2.5Zm0-5H19V13h2.5Zm0-5H19V8h2.5Z" transform="translate(1 0.75)"/><path class="i" d="M0,0H30V30H0Z"/></g><g transform="translate(4380 1546)"><path class="i" d="M0,0H30V30H0Z"/><path class="g" d="M8.25,16.751A3.745,3.745,0,0,0,4.5,20.5,2.537,2.537,0,0,1,2,23a6.467,6.467,0,0,0,5,2.5,5,5,0,0,0,5-5A3.745,3.745,0,0,0,8.25,16.751ZM25.387,5.038,23.712,3.363a1.245,1.245,0,0,0-1.762,0l-11.2,11.2L14.188,18l11.2-11.2A1.245,1.245,0,0,0,25.387,5.038Z" transform="translate(0.5 0.749)"/></g><g transform="translate(4530 1546)"><path class="i" d="M0,0H30V30H0Z"/><path class="g" d="M14.5,2A12.5,12.5,0,1,0,27,14.5,12.5,12.5,0,0,0,14.5,2Zm0,18.125A5.625,5.625,0,1,1,20.125,14.5,5.617,5.617,0,0,1,14.5,20.125Zm0-6.875a1.25,1.25,0,1,0,1.25,1.25A1.254,1.254,0,0,0,14.5,13.25Z" transform="translate(0.5 0.5)"/></g><g transform="translate(4455 1546)"><path class="g" d="M25.5,5.5V3H3V5.5L13,16.75V23H6.75v2.5h15V23H15.5V16.75ZM8.537,8,6.325,5.5H22.187L19.962,8Z" transform="translate(0.75 0.75)"/><path class="i" d="M0,0H30V30H0Z"/></g><g transform="translate(4305 1546)"><path class="g" d="M13,10.75H10.5V2H8v8.75H5.5V2H3v8.75a4.982,4.982,0,0,0,4.688,4.962V27h3.125V15.712A4.982,4.982,0,0,0,15.5,10.75V2H13ZM19.25,7V17h3.125V27H25.5V2C22.05,2,19.25,4.8,19.25,7Z" transform="translate(0.75 0.5)"/><path class="i" d="M0,0H30V30H0Z"/></g><g transform="translate(4605 1546)"><path class="i" d="M0,0H30V30H0Z"/><path class="g" d="M14.25,27.25A11.251,11.251,0,0,0,25.5,16,11.251,11.251,0,0,0,14.25,27.25Zm-8-14.687a3.128,3.128,0,0,0,4.9,2.575l-.025.237a3.125,3.125,0,0,0,6.25,0l-.025-.237a3.08,3.08,0,0,0,1.775.55A3.118,3.118,0,0,0,20.462,9.75,3.121,3.121,0,1,0,17.35,4.363l.025-.238a3.125,3.125,0,0,0-6.25,0l.025.238a3.08,3.08,0,0,0-1.775-.55A3.118,3.118,0,0,0,8.038,9.75,3.114,3.114,0,0,0,6.25,12.563Zm8-5.937A3.125,3.125,0,1,1,11.125,9.75,3.126,3.126,0,0,1,14.25,6.625ZM3,16A11.251,11.251,0,0,0,14.25,27.25,11.251,11.251,0,0,0,3,16Z" transform="translate(0.75 0.25)"/></g><g transform="translate(4557 1444)"><path class="c" d="M10,18h4V16H10ZM3,6V8H21V6Zm3,7H18V11H6Z"/><path class="i" d="M0,0H24V24H0Z"/></g><text class="n" transform="translate(4285 1462)"><tspan x="0" y="0">Ça va vous plaire !</tspan></text><g transform="translate(4245 1427)"><g transform="translate(305 622)"><path class="i" d="M0,0H30V30H0Z"/><path class="m" d="M23.72,15.725a9.741,9.741,0,0,0,.087-1.225,9.741,9.741,0,0,0-.087-1.225l2.638-2.062a.631.631,0,0,0,.15-.8l-2.5-4.325a.628.628,0,0,0-.763-.275l-3.113,1.25A9.133,9.133,0,0,0,18.02,5.838l-.475-3.312A.61.61,0,0,0,16.932,2h-5a.61.61,0,0,0-.612.525l-.475,3.312A9.6,9.6,0,0,0,8.732,7.063L5.62,5.813a.61.61,0,0,0-.763.275l-2.5,4.325a.616.616,0,0,0,.15.8l2.638,2.063A9.913,9.913,0,0,0,5.057,14.5a9.913,9.913,0,0,0,.088,1.225L2.507,17.787a.631.631,0,0,0-.15.8l2.5,4.325a.628.628,0,0,0,.763.275l3.113-1.25a9.133,9.133,0,0,0,2.113,1.225l.475,3.313a.61.61,0,0,0,.612.525h5a.61.61,0,0,0,.612-.525l.475-3.312a9.6,9.6,0,0,0,2.112-1.225l3.113,1.25a.61.61,0,0,0,.763-.275l2.5-4.325a.631.631,0,0,0-.15-.8Zm-9.288,3.15A4.375,4.375,0,1,1,18.807,14.5,4.38,4.38,0,0,1,14.432,18.875Z" transform="translate(0.568 0.5)"/></g></g></g></svg>