<svg xmlns="http://www.w3.org/2000/svg" xmlns:xlink="http://www.w3.org/1999/xlink" viewBox="4245 2143 375 667"><defs><style>.a{fill:none;}.b{clip-path:url(#am);}.c{fill:#01579b;}.d{fill:#fbc02d;}.e,.f,.i{fill:#fff;}.f,.m{font-size:20px;}.f,.l{font-family:Roboto-Regular, Roboto;}.g{clip-path:url(#e);}.h{fill:#0085c6;}.i{font-size:14px;}.i,.m{font-family:Roboto-Medium, Roboto;font-weight:500;}.j{fill:#f2f2f2;}.k{fill:gray;}.l,.m{fill:#3b3b3b;}.l{font-size:16px;}.n{fill:#b3b3b3;}.o{fill:#bf9322;}.p{filter:url(#aj);}.q{filter:url(#ah);}.r{filter:url(#af);}.s{filter:url(#ad);}.t{filter:url(#ab);}.u{filter:url(#z);}.v{filter:url(#x);}.w{filter:url(#v);}.x{filter:url(#t);}.y{filter:url(#r);}.z{filter:url(#p);}.aa{filter:url(#n);}.ab{filter:url(#l);}.ac{filter:url(#j);}.ad{filter:url(#h);}.ae{filter:url(#f);}.af{filter:url(#c);}.ag{filter:url(#a);}</style><filter id="a" x="4239" y="2141" width="387" height="116" filterUnits="userSpaceOnUse"><feOffset dy="4" input="SourceAlpha"/><feGaussianBlur stdDeviation="2" result="b"/><feFlood flood-opacity="0.239"/><feComposite operator="in" in2="b"/><feComposite in="SourceGraphic"/></filter><filter id="c" x="4542" y="2148" width="53" height="53" filterUnits="userSpaceOnUse"><feOffset dy="3" input="SourceAlpha"/><feGaussianBlur stdDeviation="3" result="d"/><feFlood flood-opacity="0.161"/><feComposite operator="in" in2="d"/><feComposite in="SourceGraphic"/></filter><clipPath id="e"><rect class="a" width="365" height="618"/></clipPath><filter id="f" x="4261" y="2421" width="168" height="63" filterUnits="userSpaceOnUse"><feOffset dy="3" input="SourceAlpha"/><feGaussianBlur stdDeviation="3" result="g"/><feFlood flood-opacity="0.161"/><feComposite operator="in" in2="g"/><feComposite in="SourceGraphic"/></filter><filter id="h" x="4540" y="2421" width="63" height="63" filterUnits="userSpaceOnUse"><feOffset dy="3" input="SourceAlpha"/><feGaussianBlur stdDeviation="3" result="i"/><feFlood flood-opacity="0.161"/><feComposite operator="in" in2="i"/><feComposite in="SourceGraphic"/></filter><filter id="j" x="4485" y="2421" width="63" height="63" filterUnits="userSpaceOnUse"><feOffset dy="3" input="SourceAlpha"/><feGaussianBlur stdDeviation="3" result="k"/><feFlood flood-opacity="0.161"/><feComposite operator="in" in2="k"/><feComposite in="SourceGraphic"/></filter><filter id="l" x="4261" y="2606" width="168" height="63" filterUnits="userSpaceOnUse"><feOffset dy="3" input="SourceAlpha"/><feGaussianBlur stdDeviation="3" result="m"/><feFlood flood-opacity="0.161"/><feComposite operator="in" in2="m"/><feComposite in="SourceGraphic"/></filter><filter id="n" x="4540" y="2606" width="63" height="63" filterUnits="userSpaceOnUse"><feOffset dy="3" input="SourceAlpha"/><feGaussianBlur stdDeviation="3" result="o"/><feFlood flood-opacity="0.161"/><feComposite operator="in" in2="o"/><feComposite in="SourceGraphic"/></filter><filter id="p" x="4485" y="2606" width="63" height="63" filterUnits="userSpaceOnUse"><feOffset dy="3" input="SourceAlpha"/><feGaussianBlur stdDeviation="3" result="q"/><feFlood flood-opacity="0.161"/><feComposite operator="in" in2="q"/><feComposite in="SourceGraphic"/></filter><filter id="r" x="4261" y="2791" width="168" height="63" filterUnits="userSpaceOnUse"><feOffset dy="3" input="SourceAlpha"/><feGaussianBlur stdDeviation="3" result="s"/><feFlood flood-opacity="0.161"/><feComposite operator="in" in2="s"/><feComposite in="SourceGraphic"/></filter><filter id="t" x="4540" y="2791" width="63" height="63" filterUnits="userSpaceOnUse"><feOffset dy="3" input="SourceAlpha"/><feGaussianBlur stdDeviation="3" result="u"/><feFlood flood-opacity="0.161"/><feComposite operator="in" in2="u"/><feComposite in="SourceGraphic"/></filter><filter id="v" x="4485" y="2791" width="63" height="63" filterUnits="userSpaceOnUse"><feOffset dy="3" input="SourceAlpha"/><feGaussianBlur stdDeviation="3" result="w"/><feFlood flood-opacity="0.161"/><feComposite operator="in" in2="w"/><feComposite in="SourceGraphic"/></filter><filter id="x" x="4261" y="2976" width="168" height="63" filterUnits="userSpaceOnUse"><feOffset dy="3" input="SourceAlpha"/><feGaussianBlur stdDeviation="3" result="y"/><feFlood flood-opacity="0.161"/><feComposite operator="in" in2="y"/><feComposite in="SourceGraphic"/></filter><filter id="z" x="4540" y="2976" width="63" height="63" filterUnits="userSpaceOnUse"><feOffset dy="3" input="SourceAlpha"/><feGaussianBlur stdDeviation="3" result="aa"/><feFlood flood-opacity="0.161"/><feComposite operator="in" in2="aa"/><feComposite in="SourceGraphic"/></filter><filter id="ab" x="4485" y="2976" width="63" height="63" filterUnits="userSpaceOnUse"><feOffset dy="3" input="SourceAlpha"/><feGaussianBlur stdDeviation="3" result="ac"/><feFlood flood-opacity="0.161"/><feComposite operator="in" in2="ac"/><feComposite in="SourceGraphic"/></filter><filter id="ad" x="4239" y="2245" width="387" height="72" filterUnits="userSpaceOnUse"><feOffset dy="4" input="SourceAlpha"/><feGaussianBlur stdDeviation="2" result="ae"/><feFlood flood-opacity="0.239"/><feComposite operator="in" in2="ae"/><feComposite in="SourceGraphic"/></filter><filter id="af" x="4261" y="2791" width="168" height="63" filterUnits="userSpaceOnUse"><feOffset dy="3" input="SourceAlpha"/><feGaussianBlur stdDeviation="3" result="ag"/><feFlood flood-opacity="0.161"/><feComposite operator="in" in2="ag"/><feComposite in="SourceGraphic"/></filter><filter id="ah" x="4540" y="2791" width="63" height="63" filterUnits="userSpaceOnUse"><feOffset dy="3" input="SourceAlpha"/><feGaussianBlur stdDeviation="3" result="ai"/><feFlood flood-opacity="0.161"/><feComposite operator="in" in2="ai"/><feComposite in="SourceGraphic"/></filter><filter id="aj" x="4485" y="2791" width="63" height="63" filterUnits="userSpaceOnUse"><feOffset dy="3" input="SourceAlpha"/><feGaussianBlur stdDeviation="3" result="ak"/><feFlood flood-opacity="0.161"/><feComposite operator="in" in2="ak"/><feComposite in="SourceGraphic"/></filter><clipPath id="am"><rect x="4245" y="2143" width="375" height="667"/></clipPath></defs><g id="al" class="b"><rect class="j" x="4245" y="2143" width="375" height="667"/><g class="ag" transform="matrix(1, 0, 0, 1, 0, 0)"><path class="c" d="M0,0H375V104H0Z" transform="translate(4245 2143)"/></g><g class="af" transform="matrix(1, 0, 0, 1, 0, 0)"><rect class="d" width="35" height="35" rx="17.5" transform="translate(4551 2154)"/></g><g transform="translate(4557 2160)"><path class="e" d="M10,18h4V16H10ZM3,6V8H21V6Zm3,7H18V11H6Z"/><path class="a" d="M0,0H24V24H0Z"/></g><text class="f" transform="translate(4285 2178)"><tspan x="0" y="0">Ça va vous plaire !</tspan></text><g class="g" transform="translate(4250 2312)"><g transform="translate(-5 -169)"><path class="e" d="M0,0H365V180H0Z" transform="translate(5 169)"/><g class="ae" transform="matrix(1, 0, 0, 1, -4245, -2143)"><rect class="c" width="150" height="45" rx="22.5" transform="translate(4270 2427)"/></g><g class="ad" transform="matrix(1, 0, 0, 1, -4245, -2143)"><rect class="h" width="45" height="45" rx="22.5" transform="translate(4549 2427)"/></g><text class="i" transform="translate(100 312)"><tspan x="-44.649" y="0">PLUS D’INFOS</tspan></text><g class="ac" transform="matrix(1, 0, 0, 1, -4245, -2143)"><rect class="j" width="45" height="45" rx="22.5" transform="translate(4494 2427)"/></g><g transform="translate(315 295)"><path class="a" d="M0,0H24V24H0Z"/><path class="e" d="M12,21.35l-1.45-1.32C5.4,15.36,2,12.28,2,8.5A5.447,5.447,0,0,1,7.5,3,5.988,5.988,0,0,1,12,5.09,5.988,5.988,0,0,1,16.5,3,5.447,5.447,0,0,1,22,8.5c0,3.78-3.4,6.86-8.55,11.54Z"/></g><g transform="translate(260 295)"><path class="k" d="M19,6.41,17.59,5,12,10.59,6.41,5,5,6.41,10.59,12,5,17.59,6.41,19,12,13.41,17.59,19,19,17.59,13.41,12Z"/><path class="a" d="M0,0H24V24H0Z"/></g><text class="l" transform="translate(25 225)"><tspan x="0" y="15">Exposition de l’Atelier National de </tspan><tspan x="0" y="34">Recherche Typographique…</tspan></text><text class="m" transform="translate(25 189)"><tspan x="0" y="19">Musée imprimerie </tspan></text><g transform="translate(300 179)"><path class="a" d="M0,0H60V60H0Z"/><path class="j" d="M14.5,30.5A7.49,7.49,0,0,0,7,38a5.073,5.073,0,0,1-5,5,12.935,12.935,0,0,0,10,5A10,10,0,0,0,22,38,7.49,7.49,0,0,0,14.5,30.5ZM48.775,7.079l-3.35-3.35a2.49,2.49,0,0,0-3.525,0l-22.4,22.4L26.375,33l22.4-22.4A2.49,2.49,0,0,0,48.775,7.079Z" transform="translate(3 4.496)"/></g></g><g transform="translate(-5 16)"><path class="e" d="M0,0H365V180H0Z" transform="translate(5 169)"/><g class="ab" transform="matrix(1, 0, 0, 1, -4245, -2328)"><rect class="c" width="150" height="45" rx="22.5" transform="translate(4270 2612)"/></g><g class="aa" transform="matrix(1, 0, 0, 1, -4245, -2328)"><rect class="h" width="45" height="45" rx="22.5" transform="translate(4549 2612)"/></g><text class="i" transform="translate(100 312)"><tspan x="-44.649" y="0">PLUS D’INFOS</tspan></text><g class="z" transform="matrix(1, 0, 0, 1, -4245, -2328)"><rect class="j" width="45" height="45" rx="22.5" transform="translate(4494 2612)"/></g><g transform="translate(315 295)"><path class="a" d="M0,0H24V24H0Z"/><path class="e" d="M12,21.35l-1.45-1.32C5.4,15.36,2,12.28,2,8.5A5.447,5.447,0,0,1,7.5,3,5.988,5.988,0,0,1,12,5.09,5.988,5.988,0,0,1,16.5,3,5.447,5.447,0,0,1,22,8.5c0,3.78-3.4,6.86-8.55,11.54Z"/></g><g transform="translate(260 295)"><path class="k" d="M19,6.41,17.59,5,12,10.59,6.41,5,5,6.41,10.59,12,5,17.59,6.41,19,12,13.41,17.59,19,19,17.59,13.41,12Z"/><path class="a" d="M0,0H24V24H0Z"/></g><text class="l" transform="translate(25 225)"><tspan x="0" y="15">Exposition de l’Atelier National de </tspan><tspan x="0" y="34">Recherche Typographique…</tspan></text><text class="m" transform="translate(25 189)"><tspan x="0" y="19">Musée imprimerie </tspan></text><g transform="translate(300 179)"><path class="a" d="M0,0H60V60H0Z"/><path class="j" d="M14.5,30.5A7.49,7.49,0,0,0,7,38a5.073,5.073,0,0,1-5,5,12.935,12.935,0,0,0,10,5A10,10,0,0,0,22,38,7.49,7.49,0,0,0,14.5,30.5ZM48.775,7.079l-3.35-3.35a2.49,2.49,0,0,0-3.525,0l-22.4,22.4L26.375,33l22.4-22.4A2.49,2.49,0,0,0,48.775,7.079Z" transform="translate(3 4.496)"/></g></g><g transform="translate(-5 201)"><path class="e" d="M0,0H365V180H0Z" transform="translate(5 169)"/><g class="y" transform="matrix(1, 0, 0, 1, -4245, -2513)"><rect class="c" width="150" height="45" rx="22.5" transform="translate(4270 2797)"/></g><g class="x" transform="matrix(1, 0, 0, 1, -4245, -2513)"><rect class="h" width="45" height="45" rx="22.5" transform="translate(4549 2797)"/></g><text class="i" transform="translate(100 312)"><tspan x="-44.649" y="0">PLUS D’INFOS</tspan></text><g class="w" transform="matrix(1, 0, 0, 1, -4245, -2513)"><rect class="j" width="45" height="45" rx="22.5" transform="translate(4494 2797)"/></g><g transform="translate(315 295)"><path class="a" d="M0,0H24V24H0Z"/><path class="e" d="M12,21.35l-1.45-1.32C5.4,15.36,2,12.28,2,8.5A5.447,5.447,0,0,1,7.5,3,5.988,5.988,0,0,1,12,5.09,5.988,5.988,0,0,1,16.5,3,5.447,5.447,0,0,1,22,8.5c0,3.78-3.4,6.86-8.55,11.54Z"/></g><g transform="translate(260 295)"><path class="k" d="M19,6.41,17.59,5,12,10.59,6.41,5,5,6.41,10.59,12,5,17.59,6.41,19,12,13.41,17.59,19,19,17.59,13.41,12Z"/><path class="a" d="M0,0H24V24H0Z"/></g><text class="l" transform="translate(25 225)"><tspan x="0" y="15">Exposition de l’Atelier National de </tspan><tspan x="0" y="34">Recherche Typographique…</tspan></text><text class="m" transform="translate(25 189)"><tspan x="0" y="19">Musée imprimerie </tspan></text><g transform="translate(300 179)"><path class="a" d="M0,0H60V60H0Z"/><path class="j" d="M14.5,30.5A7.49,7.49,0,0,0,7,38a5.073,5.073,0,0,1-5,5,12.935,12.935,0,0,0,10,5A10,10,0,0,0,22,38,7.49,7.49,0,0,0,14.5,30.5ZM48.775,7.079l-3.35-3.35a2.49,2.49,0,0,0-3.525,0l-22.4,22.4L26.375,33l22.4-22.4A2.49,2.49,0,0,0,48.775,7.079Z" transform="translate(3 4.496)"/></g></g><g transform="translate(-5 386)"><path class="e" d="M0,0H365V180H0Z" transform="translate(5 169)"/><g class="v" transform="matrix(1, 0, 0, 1, -4245, -2698)"><rect class="c" width="150" height="45" rx="22.5" transform="translate(4270 2982)"/></g><g class="u" transform="matrix(1, 0, 0, 1, -4245, -2698)"><rect class="h" width="45" height="45" rx="22.5" transform="translate(4549 2982)"/></g><text class="i" transform="translate(100 312)"><tspan x="-44.649" y="0">PLUS D’INFOS</tspan></text><g class="t" transform="matrix(1, 0, 0, 1, -4245, -2698)"><rect class="j" width="45" height="45" rx="22.5" transform="translate(4494 2982)"/></g><g transform="translate(315 295)"><path class="a" d="M0,0H24V24H0Z"/><path class="e" d="M12,21.35l-1.45-1.32C5.4,15.36,2,12.28,2,8.5A5.447,5.447,0,0,1,7.5,3,5.988,5.988,0,0,1,12,5.09,5.988,5.988,0,0,1,16.5,3,5.447,5.447,0,0,1,22,8.5c0,3.78-3.4,6.86-8.55,11.54Z"/></g><g transform="translate(260 295)"><path class="k" d="M19,6.41,17.59,5,12,10.59,6.41,5,5,6.41,10.59,12,5,17.59,6.41,19,12,13.41,17.59,19,19,17.59,13.41,12Z"/><path class="a" d="M0,0H24V24H0Z"/></g><text class="l" transform="translate(25 225)"><tspan x="0" y="15">Exposition de l’Atelier National de </tspan><tspan x="0" y="34">Recherche Typographique…</tspan></text><text class="m" transform="translate(25 189)"><tspan x="0" y="19">Musée imprimerie </tspan></text><g transform="translate(300 179)"><path class="a" d="M0,0H60V60H0Z"/><path class="j" d="M14.5,30.5A7.49,7.49,0,0,0,7,38a5.073,5.073,0,0,1-5,5,12.935,12.935,0,0,0,10,5A10,10,0,0,0,22,38,7.49,7.49,0,0,0,14.5,30.5ZM48.775,7.079l-3.35-3.35a2.49,2.49,0,0,0-3.525,0l-22.4,22.4L26.375,33l22.4-22.4A2.49,2.49,0,0,0,48.775,7.079Z" transform="translate(3 4.496)"/></g></g></g><g class="s" transform="matrix(1, 0, 0, 1, 0, 0)"><path class="e" d="M0,0H375V60H0Z" transform="translate(4245 2247)"/></g><rect class="e" width="187.5" height="2" transform="translate(4245.5 2245)"/><text class="i" transform="translate(4344.5 2231.979)"><tspan x="-32.987" y="0">VUE LISTE</tspan></text><text class="i" transform="translate(4531.5 2231.979)"><tspan x="-36.425" y="0">VUE CARTE</tspan></text><g class="r" transform="matrix(1, 0, 0, 1, 0, 0)"><rect class="c" width="150" height="45" rx="22.5" transform="translate(4270 2797)"/></g><g class="q" transform="matrix(1, 0, 0, 1, 0, 0)"><rect class="n" width="45" height="45" rx="22.5" transform="translate(4549 2797)"/></g><g class="p" transform="matrix(1, 0, 0, 1, 0, 0)"><rect class="j" width="45" height="45" rx="22.5" transform="translate(4494 2797)"/></g><rect class="d" width="375" height="60" transform="translate(4245 2750)"/><g transform="translate(4285 2765)"><path class="o" d="M14.5,2A12.5,12.5,0,1,0,27,14.5,12.5,12.5,0,0,0,14.5,2Zm0,3.75A3.75,3.75,0,1,1,10.75,9.5,3.745,3.745,0,0,1,14.5,5.75Zm0,17.75A9,9,0,0,1,7,19.475c.038-2.488,5-3.85,7.5-3.85s7.462,1.362,7.5,3.85A9,9,0,0,1,14.5,23.5Z" transform="translate(0.5 0.5)"/><path class="a" d="M0,0H30V30H0Z"/></g><g transform="translate(4413 2760)"><path class="a" d="M0,0H40V40H0Z"/><path class="e" d="M7,2V20.333h5v15l11.667-20H17L23.667,2Z" transform="translate(4.667 1.333)"/></g><g transform="translate(4484 2765)"><path class="a" d="M0,0H30V30H0Z"/><path class="o" d="M16,3A11.251,11.251,0,0,0,4.75,14.25H1l4.863,4.863.088.175L11,14.25H7.25a8.792,8.792,0,1,1,2.575,6.175L8.05,22.2A11.247,11.247,0,1,0,16,3ZM14.75,9.25V15.5l5.35,3.175.9-1.513-4.375-2.6V9.25Z" transform="translate(0.25 0.75)"/></g><g transform="translate(4351 2765)"><path class="o" d="M18.625,16.75h-.987l-.35-.337a8.137,8.137,0,1,0-.875.875l.337.35v.987L23,24.863,24.863,23Zm-7.5,0a5.625,5.625,0,1,1,5.625-5.625A5.617,5.617,0,0,1,11.125,16.75Z" transform="translate(0.75 0.75)"/><path class="a" d="M0,0H30V30H0Z"/></g><g transform="translate(4230 2262)"><path class="n" d="M21.5,3V5.5H19V3H9V5.5H6.5V3H4V25.5H6.5V23H9v2.5H19V23h2.5v2.5H24V3ZM9,20.5H6.5V18H9Zm0-5H6.5V13H9Zm0-5H6.5V8H9Zm12.5,10H19V18h2.5Zm0-5H19V13h2.5Zm0-5H19V8h2.5Z" transform="translate(1 0.75)"/><path class="a" d="M0,0H30V30H0Z"/></g><g transform="translate(4380 2262)"><path class="a" d="M0,0H30V30H0Z"/><path class="c" d="M8.25,16.751A3.745,3.745,0,0,0,4.5,20.5,2.537,2.537,0,0,1,2,23a6.467,6.467,0,0,0,5,2.5,5,5,0,0,0,5-5A3.745,3.745,0,0,0,8.25,16.751ZM25.387,5.038,23.712,3.363a1.245,1.245,0,0,0-1.762,0l-11.2,11.2L14.188,18l11.2-11.2A1.245,1.245,0,0,0,25.387,5.038Z" transform="translate(0.5 0.749)"/></g><g transform="translate(4530 2262)"><path class="a" d="M0,0H30V30H0Z"/><path class="n" d="M14.5,2A12.5,12.5,0,1,0,27,14.5,12.5,12.5,0,0,0,14.5,2Zm0,18.125A5.625,5.625,0,1,1,20.125,14.5,5.617,5.617,0,0,1,14.5,20.125Zm0-6.875a1.25,1.25,0,1,0,1.25,1.25A1.254,1.254,0,0,0,14.5,13.25Z" transform="translate(0.5 0.5)"/></g><g transform="translate(4455 2262)"><path class="n" d="M25.5,5.5V3H3V5.5L13,16.75V23H6.75v2.5h15V23H15.5V16.75ZM8.537,8,6.325,5.5H22.187L19.962,8Z" transform="translate(0.75 0.75)"/><path class="a" d="M0,0H30V30H0Z"/></g><g transform="translate(4305 2262)"><path class="n" d="M13,10.75H10.5V2H8v8.75H5.5V2H3v8.75a4.982,4.982,0,0,0,4.688,4.962V27h3.125V15.712A4.982,4.982,0,0,0,15.5,10.75V2H13ZM19.25,7V17h3.125V27H25.5V2C22.05,2,19.25,4.8,19.25,7Z" transform="translate(0.75 0.5)"/><path class="a" d="M0,0H30V30H0Z"/></g><g transform="translate(4605 2262)"><path class="a" d="M0,0H30V30H0Z"/><path class="n" d="M14.25,27.25A11.251,11.251,0,0,0,25.5,16,11.251,11.251,0,0,0,14.25,27.25Zm-8-14.687a3.128,3.128,0,0,0,4.9,2.575l-.025.237a3.125,3.125,0,0,0,6.25,0l-.025-.237a3.08,3.08,0,0,0,1.775.55A3.118,3.118,0,0,0,20.462,9.75,3.121,3.121,0,1,0,17.35,4.363l.025-.238a3.125,3.125,0,0,0-6.25,0l.025.238a3.08,3.08,0,0,0-1.775-.55A3.118,3.118,0,0,0,8.038,9.75,3.114,3.114,0,0,0,6.25,12.563Zm8-5.937A3.125,3.125,0,1,1,11.125,9.75,3.126,3.126,0,0,1,14.25,6.625ZM3,16A11.251,11.251,0,0,0,14.25,27.25,11.251,11.251,0,0,0,3,16Z" transform="translate(0.75 0.25)"/></g><g transform="translate(4245 2143)"><g transform="translate(305 622)"><path class="a" d="M0,0H30V30H0Z"/><path class="o" d="M23.72,15.725a9.741,9.741,0,0,0,.087-1.225,9.741,9.741,0,0,0-.087-1.225l2.638-2.062a.631.631,0,0,0,.15-.8l-2.5-4.325a.628.628,0,0,0-.763-.275l-3.113,1.25A9.133,9.133,0,0,0,18.02,5.838l-.475-3.312A.61.61,0,0,0,16.932,2h-5a.61.61,0,0,0-.612.525l-.475,3.312A9.6,9.6,0,0,0,8.732,7.063L5.62,5.813a.61.61,0,0,0-.763.275l-2.5,4.325a.616.616,0,0,0,.15.8l2.638,2.063A9.913,9.913,0,0,0,5.057,14.5a9.913,9.913,0,0,0,.088,1.225L2.507,17.787a.631.631,0,0,0-.15.8l2.5,4.325a.628.628,0,0,0,.763.275l3.113-1.25a9.133,9.133,0,0,0,2.113,1.225l.475,3.313a.61.61,0,0,0,.612.525h5a.61.61,0,0,0,.612-.525l.475-3.312a9.6,9.6,0,0,0,2.112-1.225l3.113,1.25a.61.61,0,0,0,.763-.275l2.5-4.325a.631.631,0,0,0-.15-.8Zm-9.288,3.15A4.375,4.375,0,1,1,18.807,14.5,4.38,4.38,0,0,1,14.432,18.875Z" transform="translate(0.568 0.5)"/></g></g></g></svg>