<svg xmlns="http://www.w3.org/2000/svg" xmlns:xlink="http://www.w3.org/1999/xlink" viewBox="4245 -5 375 667"><defs><style>.a{clip-path:url(#v);}.b{fill:#01579b;}.c,.d,.m{fill:#fff;}.d{font-size:14px;}.d,.j{font-family:Roboto-Medium, Roboto;font-weight:500;}.e{fill:#b3b3b3;}.f{fill:#f2f2f2;}.g{fill:none;}.h{fill:gray;}.i,.j{fill:#3b3b3b;}.i{font-size:16px;}.i,.m{font-family:Roboto-Regular, Roboto;}.j,.m{font-size:20px;}.k{fill:#fbc02d;}.l{fill:#bf9322;}.n{filter:url(#s);}.o{filter:url(#q);}.p{filter:url(#o);}.q{filter:url(#m);}.r{filter:url(#k);}.s{filter:url(#i);}.t{filter:url(#g);}.u{filter:url(#e);}.v{filter:url(#c);}.w{filter:url(#a);}</style><filter id="a" x="4239" y="-7" width="387" height="116" filterUnits="userSpaceOnUse"><feOffset dy="4" input="SourceAlpha"/><feGaussianBlur stdDeviation="2" result="b"/><feFlood flood-opacity="0.239"/><feComposite operator="in" in2="b"/><feComposite in="SourceGraphic"/></filter><filter id="c" x="4261" y="213" width="168" height="63" filterUnits="userSpaceOnUse"><feOffset dy="3" input="SourceAlpha"/><feGaussianBlur stdDeviation="3" result="d"/><feFlood flood-opacity="0.161"/><feComposite operator="in" in2="d"/><feComposite in="SourceGraphic"/></filter><filter id="e" x="4261" y="398" width="168" height="63" filterUnits="userSpaceOnUse"><feOffset dy="3" input="SourceAlpha"/><feGaussianBlur stdDeviation="3" result="f"/><feFlood flood-opacity="0.161"/><feComposite operator="in" in2="f"/><feComposite in="SourceGraphic"/></filter><filter id="g" x="4261" y="583" width="168" height="63" filterUnits="userSpaceOnUse"><feOffset dy="3" input="SourceAlpha"/><feGaussianBlur stdDeviation="3" result="h"/><feFlood flood-opacity="0.161"/><feComposite operator="in" in2="h"/><feComposite in="SourceGraphic"/></filter><filter id="i" x="4540" y="213" width="63" height="63" filterUnits="userSpaceOnUse"><feOffset dy="3" input="SourceAlpha"/><feGaussianBlur stdDeviation="3" result="j"/><feFlood flood-opacity="0.161"/><feComposite operator="in" in2="j"/><feComposite in="SourceGraphic"/></filter><filter id="k" x="4540" y="398" width="63" height="63" filterUnits="userSpaceOnUse"><feOffset dy="3" input="SourceAlpha"/><feGaussianBlur stdDeviation="3" result="l"/><feFlood flood-opacity="0.161"/><feComposite operator="in" in2="l"/><feComposite in="SourceGraphic"/></filter><filter id="m" x="4540" y="583" width="63" height="63" filterUnits="userSpaceOnUse"><feOffset dy="3" input="SourceAlpha"/><feGaussianBlur stdDeviation="3" result="n"/><feFlood flood-opacity="0.161"/><feComposite operator="in" in2="n"/><feComposite in="SourceGraphic"/></filter><filter id="o" x="4485" y="213" width="63" height="63" filterUnits="userSpaceOnUse"><feOffset dy="3" input="SourceAlpha"/><feGaussianBlur stdDeviation="3" result="p"/><feFlood flood-opacity="0.161"/><feComposite operator="in" in2="p"/><feComposite in="SourceGraphic"/></filter><filter id="q" x="4485" y="398" width="63" height="63" filterUnits="userSpaceOnUse"><feOffset dy="3" input="SourceAlpha"/><feGaussianBlur stdDeviation="3" result="r"/><feFlood flood-opacity="0.161"/><feComposite operator="in" in2="r"/><feComposite in="SourceGraphic"/></filter><filter id="s" x="4485" y="583" width="63" height="63" filterUnits="userSpaceOnUse"><feOffset dy="3" input="SourceAlpha"/><feGaussianBlur stdDeviation="3" result="t"/><feFlood flood-opacity="0.161"/><feComposite operator="in" in2="t"/><feComposite in="SourceGraphic"/></filter><clipPath id="v"><rect x="4245" y="-5" width="375" height="667"/></clipPath></defs><g id="u" class="a"><rect class="f" x="4245" y="-5" width="375" height="667"/><g class="w" transform="matrix(1, 0, 0, 1, 0, 0)"><path class="b" d="M0,0H375V104H0Z" transform="translate(4245 -5)"/></g><rect class="c" width="187.5" height="2" transform="translate(4245.5 97)"/><text class="d" transform="translate(4344.5 83.979)"><tspan x="-32.987" y="0">VUE LISTE</tspan></text><text class="d" transform="translate(4531.5 83.979)"><tspan x="-36.425" y="0">VUE CARTE</tspan></text><path class="c" d="M0,0H365V180H0Z" transform="translate(4250 104)"/><path class="c" d="M0,0H365V180H0Z" transform="translate(4250 289)"/><path class="c" d="M0,0H365V180H0Z" transform="translate(4250 474)"/><g class="v" transform="matrix(1, 0, 0, 1, 0, 0)"><rect class="b" width="150" height="45" rx="22.5" transform="translate(4270 219)"/></g><g class="u" transform="matrix(1, 0, 0, 1, 0, 0)"><rect class="b" width="150" height="45" rx="22.5" transform="translate(4270 404)"/></g><g class="t" transform="matrix(1, 0, 0, 1, 0, 0)"><rect class="b" width="150" height="45" rx="22.5" transform="translate(4270 589)"/></g><g class="s" transform="matrix(1, 0, 0, 1, 0, 0)"><path class="e" d="M22.5,0A22.5,22.5,0,1,1,0,22.5,22.5,22.5,0,0,1,22.5,0Z" transform="translate(4549 219)"/></g><g class="r" transform="matrix(1, 0, 0, 1, 0, 0)"><rect class="e" width="45" height="45" rx="22.5" transform="translate(4549 404)"/></g><g class="q" transform="matrix(1, 0, 0, 1, 0, 0)"><rect class="e" width="45" height="45" rx="22.5" transform="translate(4549 589)"/></g><text class="d" transform="translate(4345 247)"><tspan x="-44.649" y="0">PLUS D’INFOS</tspan></text><text class="d" transform="translate(4345 432)"><tspan x="-44.649" y="0">PLUS D’INFOS</tspan></text><text class="d" transform="translate(4345 617)"><tspan x="-44.649" y="0">PLUS D’INFOS</tspan></text><g class="p" transform="matrix(1, 0, 0, 1, 0, 0)"><rect class="f" width="45" height="45" rx="22.5" transform="translate(4494 219)"/></g><g class="o" transform="matrix(1, 0, 0, 1, 0, 0)"><rect class="f" width="45" height="45" rx="22.5" transform="translate(4494 404)"/></g><g class="n" transform="matrix(1, 0, 0, 1, 0, 0)"><rect class="f" width="45" height="45" rx="22.5" transform="translate(4494 589)"/></g><g transform="translate(4560 230)"><path class="g" d="M0,0H24V24H0Z"/><path class="c" d="M12,21.35l-1.45-1.32C5.4,15.36,2,12.28,2,8.5A5.447,5.447,0,0,1,7.5,3,5.988,5.988,0,0,1,12,5.09,5.988,5.988,0,0,1,16.5,3,5.447,5.447,0,0,1,22,8.5c0,3.78-3.4,6.86-8.55,11.54Z"/></g><g transform="translate(4560 415)"><path class="g" d="M0,0H24V24H0Z"/><path class="c" d="M12,21.35l-1.45-1.32C5.4,15.36,2,12.28,2,8.5A5.447,5.447,0,0,1,7.5,3,5.988,5.988,0,0,1,12,5.09,5.988,5.988,0,0,1,16.5,3,5.447,5.447,0,0,1,22,8.5c0,3.78-3.4,6.86-8.55,11.54Z"/></g><g transform="translate(4560 600)"><path class="g" d="M0,0H24V24H0Z"/><path class="c" d="M12,21.35l-1.45-1.32C5.4,15.36,2,12.28,2,8.5A5.447,5.447,0,0,1,7.5,3,5.988,5.988,0,0,1,12,5.09,5.988,5.988,0,0,1,16.5,3,5.447,5.447,0,0,1,22,8.5c0,3.78-3.4,6.86-8.55,11.54Z"/></g><g transform="translate(4505 230)"><path class="h" d="M19,6.41,17.59,5,12,10.59,6.41,5,5,6.41,10.59,12,5,17.59,6.41,19,12,13.41,17.59,19,19,17.59,13.41,12Z"/><path class="g" d="M0,0H24V24H0Z"/></g><g transform="translate(4505 415)"><path class="h" d="M19,6.41,17.59,5,12,10.59,6.41,5,5,6.41,10.59,12,5,17.59,6.41,19,12,13.41,17.59,19,19,17.59,13.41,12Z"/><path class="g" d="M0,0H24V24H0Z"/></g><g transform="translate(4505 600)"><path class="h" d="M19,6.41,17.59,5,12,10.59,6.41,5,5,6.41,10.59,12,5,17.59,6.41,19,12,13.41,17.59,19,19,17.59,13.41,12Z"/><path class="g" d="M0,0H24V24H0Z"/></g><text class="i" transform="translate(4270 160)"><tspan x="0" y="15">Exposition de l’Atelier National de </tspan><tspan x="0" y="34">Recherche Typographique…</tspan></text><text class="i" transform="translate(4270 345)"><tspan x="0" y="15">Concept de micro-brasseries </tspan><tspan x="0" y="34">américaines made in Lyon.</tspan></text><text class="i" transform="translate(4270 530)"><tspan x="0" y="15">Exposition de l’Atelier National de </tspan><tspan x="0" y="34">Recherche Typographique…</tspan></text><text class="j" transform="translate(4270 124)"><tspan x="0" y="19">Musée imprimerie </tspan></text><text class="j" transform="translate(4270 309)"><tspan x="0" y="19">Ninkasi Cordeliers</tspan></text><text class="j" transform="translate(4270 494)"><tspan x="0" y="19">Musée imprimerie</tspan></text><rect class="k" width="375" height="60" transform="translate(4245 602)"/><g transform="translate(4545 114)"><path class="g" d="M0,0H60V60H0Z"/><path class="f" d="M14.5,30.5A7.49,7.49,0,0,0,7,38a5.073,5.073,0,0,1-5,5,12.935,12.935,0,0,0,10,5A10,10,0,0,0,22,38,7.49,7.49,0,0,0,14.5,30.5ZM48.775,7.079l-3.35-3.35a2.49,2.49,0,0,0-3.525,0l-22.4,22.4L26.375,33l22.4-22.4A2.49,2.49,0,0,0,48.775,7.079Z" transform="translate(3 4.496)"/></g><g transform="translate(4545 484)"><path class="g" d="M0,0H60V60H0Z"/><path class="f" d="M14.5,30.5A7.49,7.49,0,0,0,7,38a5.073,5.073,0,0,1-5,5,12.935,12.935,0,0,0,10,5A10,10,0,0,0,22,38,7.49,7.49,0,0,0,14.5,30.5ZM48.775,7.079l-3.35-3.35a2.49,2.49,0,0,0-3.525,0l-22.4,22.4L26.375,33l22.4-22.4A2.49,2.49,0,0,0,48.775,7.079Z" transform="translate(3 4.496)"/></g><path class="f" d="M48,8V3H3V8L23,30.5V43H10.5v5h30V43H28V30.5ZM14.075,13,9.65,8H41.375l-4.45,5Z" transform="translate(4549.5 303.5)"/><g transform="translate(4285 617)"><path class="l" d="M14.5,2A12.5,12.5,0,1,0,27,14.5,12.5,12.5,0,0,0,14.5,2Zm0,3.75A3.75,3.75,0,1,1,10.75,9.5,3.745,3.745,0,0,1,14.5,5.75Zm0,17.75A9,9,0,0,1,7,19.475c.038-2.488,5-3.85,7.5-3.85s7.462,1.362,7.5,3.85A9,9,0,0,1,14.5,23.5Z" transform="translate(0.5 0.5)"/><path class="g" d="M0,0H30V30H0Z"/></g><g transform="translate(4413 612)"><path class="g" d="M0,0H40V40H0Z"/><path class="c" d="M7,2V20.333h5v15l11.667-20H17L23.667,2Z" transform="translate(4.667 1.333)"/></g><g transform="translate(4484 617)"><path class="g" d="M0,0H30V30H0Z"/><path class="l" d="M16,3A11.251,11.251,0,0,0,4.75,14.25H1l4.863,4.863.088.175L11,14.25H7.25a8.792,8.792,0,1,1,2.575,6.175L8.05,22.2A11.247,11.247,0,1,0,16,3ZM14.75,9.25V15.5l5.35,3.175.9-1.513-4.375-2.6V9.25Z" transform="translate(0.25 0.75)"/></g><g transform="translate(4351 617)"><path class="l" d="M18.625,16.75h-.987l-.35-.337a8.137,8.137,0,1,0-.875.875l.337.35v.987L23,24.863,24.863,23Zm-7.5,0a5.625,5.625,0,1,1,5.625-5.625A5.617,5.617,0,0,1,11.125,16.75Z" transform="translate(0.75 0.75)"/><path class="g" d="M0,0H30V30H0Z"/></g><text class="m" transform="translate(4285 30)"><tspan x="0" y="0">Ça va vous plaire !</tspan></text><g transform="translate(4557 12)"><path class="c" d="M10,18h4V16H10ZM3,6V8H21V6Zm3,7H18V11H6Z"/><path class="g" d="M0,0H24V24H0Z"/></g><g transform="translate(4245 -5)"><g transform="translate(305 622)"><path class="g" d="M0,0H30V30H0Z"/><path class="l" d="M23.72,15.725a9.741,9.741,0,0,0,.087-1.225,9.741,9.741,0,0,0-.087-1.225l2.638-2.062a.631.631,0,0,0,.15-.8l-2.5-4.325a.628.628,0,0,0-.763-.275l-3.113,1.25A9.133,9.133,0,0,0,18.02,5.838l-.475-3.312A.61.61,0,0,0,16.932,2h-5a.61.61,0,0,0-.612.525l-.475,3.312A9.6,9.6,0,0,0,8.732,7.063L5.62,5.813a.61.61,0,0,0-.763.275l-2.5,4.325a.616.616,0,0,0,.15.8l2.638,2.063A9.913,9.913,0,0,0,5.057,14.5a9.913,9.913,0,0,0,.088,1.225L2.507,17.787a.631.631,0,0,0-.15.8l2.5,4.325a.628.628,0,0,0,.763.275l3.113-1.25a9.133,9.133,0,0,0,2.113,1.225l.475,3.313a.61.61,0,0,0,.612.525h5a.61.61,0,0,0,.612-.525l.475-3.312a9.6,9.6,0,0,0,2.112-1.225l3.113,1.25a.61.61,0,0,0,.763-.275l2.5-4.325a.631.631,0,0,0-.15-.8Zm-9.288,3.15A4.375,4.375,0,1,1,18.807,14.5,4.38,4.38,0,0,1,14.432,18.875Z" transform="translate(0.568 0.5)"/></g></g></g></svg>