<svg xmlns="http://www.w3.org/2000/svg" xmlns:xlink="http://www.w3.org/1999/xlink" viewBox="5195 0 375 667"><defs><style>.a{clip-path:url(#i);}.b,.d,.f{fill:#fff;}.b{font-size:20px;}.b,.d{font-family:Roboto-Medium, Roboto;font-weight:500;}.c{fill:#01579b;}.d{font-size:14px;}.e{fill:#fbc02d;}.g{fill:none;}.h{fill:#bf9322;}.i{fill:url(#a);}.j{filter:url(#f);}.k{filter:url(#d);}.l{filter:url(#b);}</style><linearGradient id="a" x2="1" y2="1" gradientUnits="objectBoundingBox"><stop offset="0" stop-color="#039be5"/><stop offset="1" stop-color="#0085c6"/></linearGradient><filter id="b" x="5246" y="423" width="274" height="69" filterUnits="userSpaceOnUse"><feOffset dy="8" input="SourceAlpha"/><feGaussianBlur stdDeviation="4" result="c"/><feFlood flood-opacity="0.149"/><feComposite operator="in" in2="c"/><feComposite in="SourceGraphic"/></filter><filter id="d" x="5246" y="478" width="274" height="69" filterUnits="userSpaceOnUse"><feOffset dy="8" input="SourceAlpha"/><feGaussianBlur stdDeviation="4" result="e"/><feFlood flood-opacity="0.149"/><feComposite operator="in" in2="e"/><feComposite in="SourceGraphic"/></filter><filter id="f" x="5246" y="368" width="274" height="69" filterUnits="userSpaceOnUse"><feOffset dy="8" input="SourceAlpha"/><feGaussianBlur stdDeviation="4" result="g"/><feFlood flood-opacity="0.149"/><feComposite operator="in" in2="g"/><feComposite in="SourceGraphic"/></filter><clipPath id="i"><rect x="5195" width="375" height="667"/></clipPath></defs><g id="h" class="a"><rect class="i" x="5195" width="375" height="667"/><text class="b" transform="translate(5258 219)"><tspan x="87.041" y="19">Coline P.</tspan></text><g transform="translate(5195 -95)"><g class="l" transform="matrix(1, 0, 0, 1, -5195, 95)"><path class="c" d="M22.5,0h205a22.5,22.5,0,0,1,0,45H22.5a22.5,22.5,0,0,1,0-45Z" transform="translate(5258 427)"/></g><text class="d" transform="translate(188 550)"><tspan x="-45.804" y="0">MON BUDGET </tspan></text></g><g transform="translate(5195 -40)"><g class="k" transform="matrix(1, 0, 0, 1, -5195, 40)"><path class="e" d="M22.5,0h205a22.5,22.5,0,0,1,0,45H22.5a22.5,22.5,0,0,1,0-45Z" transform="translate(5258 482)"/></g><text class="d" transform="translate(188 550)"><tspan x="-70.321" y="0">AFFINER MON PROFIL</tspan></text></g><rect class="e" width="375" height="60" transform="translate(5195 607)"/><g transform="translate(5235 622)"><path class="f" d="M14.5,2A12.5,12.5,0,1,0,27,14.5,12.5,12.5,0,0,0,14.5,2Zm0,3.75A3.75,3.75,0,1,1,10.75,9.5,3.745,3.745,0,0,1,14.5,5.75Zm0,17.75A9,9,0,0,1,7,19.475c.038-2.488,5-3.85,7.5-3.85s7.462,1.362,7.5,3.85A9,9,0,0,1,14.5,23.5Z" transform="translate(0.5 0.5)"/><path class="g" d="M0,0H30V30H0Z"/></g><g transform="translate(5363 617)"><path class="g" d="M0,0H40V40H0Z"/><path class="h" d="M7,2V20.333h5v15l11.667-20H17L23.667,2Z" transform="translate(4.667 1.333)"/></g><g transform="translate(5434 622)"><path class="g" d="M0,0H30V30H0Z"/><path class="h" d="M16,3A11.251,11.251,0,0,0,4.75,14.25H1l4.863,4.863.088.175L11,14.25H7.25a8.792,8.792,0,1,1,2.575,6.175L8.05,22.2A11.247,11.247,0,1,0,16,3ZM14.75,9.25V15.5l5.35,3.175.9-1.513-4.375-2.6V9.25Z" transform="translate(0.25 0.75)"/></g><g transform="translate(5301 622)"><path class="h" d="M18.625,16.75h-.987l-.35-.337a8.137,8.137,0,1,0-.875.875l.337.35v.987L23,24.863,24.863,23Zm-7.5,0a5.625,5.625,0,1,1,5.625-5.625A5.617,5.617,0,0,1,11.125,16.75Z" transform="translate(0.75 0.75)"/><path class="g" d="M0,0H30V30H0Z"/></g><g transform="translate(5195 -150)"><g class="j" transform="matrix(1, 0, 0, 1, -5195, 150)"><path class="c" d="M22.5,0h205a22.5,22.5,0,0,1,0,45H22.5a22.5,22.5,0,0,1,0-45Z" transform="translate(5258 372)"/></g><text class="d" transform="translate(188 550)"><tspan x="-81.782" y="0">MES CENTRES D’INTERET</tspan></text></g><path class="f" d="M52,2a50,50,0,1,0,50,50A50.018,50.018,0,0,0,52,2Zm0,15A15,15,0,1,1,37,32,14.98,14.98,0,0,1,52,17Zm0,71A36,36,0,0,1,22,71.9c.15-9.95,20-15.4,30-15.4,9.95,0,29.85,5.45,30,15.4A36,36,0,0,1,52,88Z" transform="translate(5331 97)"/><g transform="translate(5195)"><g transform="translate(305 622)"><path class="g" d="M0,0H30V30H0Z"/><path class="h" d="M23.72,15.725a9.741,9.741,0,0,0,.087-1.225,9.741,9.741,0,0,0-.087-1.225l2.638-2.062a.631.631,0,0,0,.15-.8l-2.5-4.325a.628.628,0,0,0-.763-.275l-3.113,1.25A9.133,9.133,0,0,0,18.02,5.838l-.475-3.312A.61.61,0,0,0,16.932,2h-5a.61.61,0,0,0-.612.525l-.475,3.312A9.6,9.6,0,0,0,8.732,7.063L5.62,5.813a.61.61,0,0,0-.763.275l-2.5,4.325a.616.616,0,0,0,.15.8l2.638,2.063A9.913,9.913,0,0,0,5.057,14.5a9.913,9.913,0,0,0,.088,1.225L2.507,17.787a.631.631,0,0,0-.15.8l2.5,4.325a.628.628,0,0,0,.763.275l3.113-1.25a9.133,9.133,0,0,0,2.113,1.225l.475,3.313a.61.61,0,0,0,.612.525h5a.61.61,0,0,0,.612-.525l.475-3.312a9.6,9.6,0,0,0,2.112-1.225l3.113,1.25a.61.61,0,0,0,.763-.275l2.5-4.325a.631.631,0,0,0-.15-.8Zm-9.288,3.15A4.375,4.375,0,1,1,18.807,14.5,4.38,4.38,0,0,1,14.432,18.875Z" transform="translate(0.568 0.5)"/></g></g></g></svg>