<svg xmlns="http://www.w3.org/2000/svg" xmlns:xlink="http://www.w3.org/1999/xlink" viewBox="5670 1427 375 667"><defs><style>.a{clip-path:url(#d);}.b{fill:#fbc02d;}.c{fill:#bf9322;}.d,.h{fill:none;}.e,.i,.j,.n{fill:#fff;}.f,.g{fill:#01579b;}.g,.h{fill-rule:evenodd;}.i{font-size:20px;}.i,.n,.o{font-family:Roboto-Regular, Roboto;}.j{font-size:14px;font-family:Roboto-Medium, Roboto;font-weight:500;}.k{fill:#039be5;opacity:0.235;}.k,.l{stroke:#95989a;stroke-width:1px;}.l{fill:#0085c6;}.m{fill:rgba(0,0,0,0.26);}.n{font-size:15px;}.o{fill:#3b3b3b;font-size:16px;}.p{stroke:none;}.q{fill:#f2f2f2;}.r{filter:url(#a);}</style><filter id="a" x="5664" y="1425" width="387" height="116" filterUnits="userSpaceOnUse"><feOffset dy="4" input="SourceAlpha"/><feGaussianBlur stdDeviation="2" result="b"/><feFlood flood-opacity="0.239"/><feComposite operator="in" in2="b"/><feComposite in="SourceGraphic"/></filter><clipPath id="d"><rect x="5670" y="1427" width="375" height="667"/></clipPath></defs><g id="c" class="a"><rect class="q" x="5670" y="1427" width="375" height="667"/><rect class="b" width="375" height="60" transform="translate(5670 2034)"/><g transform="translate(5710 2049)"><path class="c" d="M14.5,2A12.5,12.5,0,1,0,27,14.5,12.5,12.5,0,0,0,14.5,2Zm0,3.75A3.75,3.75,0,1,1,10.75,9.5,3.745,3.745,0,0,1,14.5,5.75Zm0,17.75A9,9,0,0,1,7,19.475c.038-2.488,5-3.85,7.5-3.85s7.462,1.362,7.5,3.85A9,9,0,0,1,14.5,23.5Z" transform="translate(0.5 0.5)"/><path class="d" d="M0,0H30V30H0Z"/></g><g transform="translate(5838 2044)"><path class="d" d="M0,0H40V40H0Z"/><path class="c" d="M7,2V20.333h5v15l11.667-20H17L23.667,2Z" transform="translate(4.667 1.333)"/></g><g transform="translate(5909 2049)"><path class="d" d="M0,0H30V30H0Z"/><path class="e" d="M16,3A11.251,11.251,0,0,0,4.75,14.25H1l4.863,4.863.088.175L11,14.25H7.25a8.792,8.792,0,1,1,2.575,6.175L8.05,22.2A11.247,11.247,0,1,0,16,3ZM14.75,9.25V15.5l5.35,3.175.9-1.513-4.375-2.6V9.25Z" transform="translate(0.25 0.75)"/></g><g transform="translate(5776 2049)"><path class="c" d="M18.625,16.75h-.987l-.35-.337a8.137,8.137,0,1,0-.875.875l.337.35v.987L23,24.863,24.863,23Zm-7.5,0a5.625,5.625,0,1,1,5.625-5.625A5.617,5.617,0,0,1,11.125,16.75Z" transform="translate(0.75 0.75)"/><path class="d" d="M0,0H30V30H0Z"/></g><g class="r" transform="matrix(1, 0, 0, 1, 0, 0)"><path class="f" d="M0,0H375V104H0Z" transform="translate(5670 1427)"/></g><path class="g" d="M375,0H0V56H375Z" transform="translate(5670 1427)"/><path class="h" d="M12,0H0V-24H12Z" transform="translate(6002 1467)"/><text class="i" transform="translate(5710 1462)"><tspan x="0" y="0">Paramètres</tspan></text><rect class="d" width="24" height="24" transform="translate(5686 1443)"/><rect class="d" width="56" height="56" transform="translate(5989 1427)"/><text class="j" transform="translate(5769.5 1515.979)"><tspan x="-29.032" y="0">ALERTES</tspan></text><text class="j" transform="translate(5956.5 1515.979)"><tspan x="-37.505" y="0">PÉRIMÈTRE</tspan></text><rect class="e" width="187.5" height="2" transform="translate(5857.5 1529)"/><g class="k" transform="translate(5769 1675)"><circle class="p" cx="88.5" cy="88.5" r="88.5"/><circle class="d" cx="88.5" cy="88.5" r="88"/></g><g class="l" transform="translate(5847 1753)"><circle class="p" cx="11" cy="11" r="11"/><circle class="d" cx="11" cy="11" r="10.5"/></g><g transform="translate(5737 1909.9)"><rect class="m" width="238.685" height="3.315" transform="translate(1.658 62.921)"/><rect class="f" width="142.548" height="3.315" transform="translate(1.658 62.921)"/><g transform="translate(0 62.921)"><circle cx="1.658" cy="1.658" r="1.658" transform="translate(188.959)"/><circle cx="1.658" cy="1.658" r="1.658" transform="translate(238.685)"/><circle cx="1.658" cy="1.658" r="1.658" transform="translate(46.411)"/><circle cx="1.658" cy="1.658" r="1.658" transform="translate(92.822)"/><circle cx="1.658" cy="1.658" r="1.658" transform="translate(142.548)"/><circle cx="1.658" cy="1.658" r="1.658"/></g><g transform="translate(122.658 0.1)"><path class="g" d="M21.548.1A21.684,21.684,0,0,1,43.1,21.979c0,6.133-3.315,12.6-12.1,21.382l-9.448,9.614-9.614-9.614C3.315,34.411,0,27.947,0,21.979A21.684,21.684,0,0,1,21.548.1Z" transform="translate(0 -0.1)"/><g transform="translate(12.245 11.603)"><text class="n" transform="translate(0 14)"><tspan x="0" y="0">10</tspan></text></g></g></g><text class="o" transform="translate(5710 1588)"><tspan x="0" y="15">Définis ton périmètre de recherche </tspan><tspan x="0" y="34">pour tes loisirs.</tspan></text><g transform="translate(5670 1427)"><g transform="translate(305 622)"><path class="d" d="M0,0H30V30H0Z"/><path class="c" d="M23.72,15.725a9.741,9.741,0,0,0,.087-1.225,9.741,9.741,0,0,0-.087-1.225l2.638-2.062a.631.631,0,0,0,.15-.8l-2.5-4.325a.628.628,0,0,0-.763-.275l-3.113,1.25A9.133,9.133,0,0,0,18.02,5.838l-.475-3.312A.61.61,0,0,0,16.932,2h-5a.61.61,0,0,0-.612.525l-.475,3.312A9.6,9.6,0,0,0,8.732,7.063L5.62,5.813a.61.61,0,0,0-.763.275l-2.5,4.325a.616.616,0,0,0,.15.8l2.638,2.063A9.913,9.913,0,0,0,5.057,14.5a9.913,9.913,0,0,0,.088,1.225L2.507,17.787a.631.631,0,0,0-.15.8l2.5,4.325a.628.628,0,0,0,.763.275l3.113-1.25a9.133,9.133,0,0,0,2.113,1.225l.475,3.313a.61.61,0,0,0,.612.525h5a.61.61,0,0,0,.612-.525l.475-3.312a9.6,9.6,0,0,0,2.112-1.225l3.113,1.25a.61.61,0,0,0,.763-.275l2.5-4.325a.631.631,0,0,0-.15-.8Zm-9.288,3.15A4.375,4.375,0,1,1,18.807,14.5,4.38,4.38,0,0,1,14.432,18.875Z" transform="translate(0.568 0.5)"/></g></g></g></svg>