<svg xmlns="http://www.w3.org/2000/svg" xmlns:xlink="http://www.w3.org/1999/xlink" viewBox="6090 1427 375 667"><defs><style>.a{clip-path:url(#f);}.b{fill:#fbc02d;}.c{fill:#bf9322;}.d,.g{fill:none;}.e,.f{fill:#01579b;}.f,.g,.k{fill-rule:evenodd;}.h,.i,.j{fill:#fff;}.h{font-size:20px;}.h,.m{font-family:Roboto-Regular, Roboto;}.i{font-size:14px;font-family:Roboto-Medium, Roboto;font-weight:500;}.k,.l{fill:#0085c6;}.k{opacity:0.5;}.m{fill:#3b3b3b;font-size:16px;}.n{fill:#f2f2f2;}.o{filter:url(#c);}.p{filter:url(#a);}</style><filter id="a" x="6084" y="1425" width="387" height="116" filterUnits="userSpaceOnUse"><feOffset dy="4" input="SourceAlpha"/><feGaussianBlur stdDeviation="2" result="b"/><feFlood flood-opacity="0.239"/><feComposite operator="in" in2="b"/><feComposite in="SourceGraphic"/></filter><filter id="c" x="6402" y="1709" width="26" height="26" filterUnits="userSpaceOnUse"><feOffset dy="2" input="SourceAlpha"/><feGaussianBlur stdDeviation="1" result="d"/><feFlood flood-opacity="0.239"/><feComposite operator="in" in2="d"/><feComposite in="SourceGraphic"/></filter><clipPath id="f"><rect x="6090" y="1427" width="375" height="667"/></clipPath></defs><g id="e" class="a"><rect class="n" x="6090" y="1427" width="375" height="667"/><rect class="b" width="375" height="60" transform="translate(6090 2034)"/><g transform="translate(6130 2049)"><path class="c" d="M14.5,2A12.5,12.5,0,1,0,27,14.5,12.5,12.5,0,0,0,14.5,2Zm0,3.75A3.75,3.75,0,1,1,10.75,9.5,3.745,3.745,0,0,1,14.5,5.75Zm0,17.75A9,9,0,0,1,7,19.475c.038-2.488,5-3.85,7.5-3.85s7.462,1.362,7.5,3.85A9,9,0,0,1,14.5,23.5Z" transform="translate(0.5 0.5)"/><path class="d" d="M0,0H30V30H0Z"/></g><g transform="translate(6258 2044)"><path class="d" d="M0,0H40V40H0Z"/><path class="c" d="M7,2V20.333h5v15l11.667-20H17L23.667,2Z" transform="translate(4.667 1.333)"/></g><g transform="translate(6329 2049)"><path class="d" d="M0,0H30V30H0Z"/><path class="c" d="M16,3A11.251,11.251,0,0,0,4.75,14.25H1l4.863,4.863.088.175L11,14.25H7.25a8.792,8.792,0,1,1,2.575,6.175L8.05,22.2A11.247,11.247,0,1,0,16,3ZM14.75,9.25V15.5l5.35,3.175.9-1.513-4.375-2.6V9.25Z" transform="translate(0.25 0.75)"/></g><g transform="translate(6196 2049)"><path class="c" d="M18.625,16.75h-.987l-.35-.337a8.137,8.137,0,1,0-.875.875l.337.35v.987L23,24.863,24.863,23Zm-7.5,0a5.625,5.625,0,1,1,5.625-5.625A5.617,5.617,0,0,1,11.125,16.75Z" transform="translate(0.75 0.75)"/><path class="d" d="M0,0H30V30H0Z"/></g><g class="p" transform="matrix(1, 0, 0, 1, 0, 0)"><path class="e" d="M0,0H375V104H0Z" transform="translate(6090 1427)"/></g><path class="f" d="M375,0H0V56H375Z" transform="translate(6090 1427)"/><path class="g" d="M12,0H0V-24H12Z" transform="translate(6422 1467)"/><text class="h" transform="translate(6130 1462)"><tspan x="0" y="0">Paramètres</tspan></text><rect class="d" width="24" height="24" transform="translate(6106 1443)"/><rect class="d" width="56" height="56" transform="translate(6409 1427)"/><text class="i" transform="translate(6189.5 1515.979)"><tspan x="-29.032" y="0">ALERTES</tspan></text><text class="i" transform="translate(6376.5 1515.979)"><tspan x="-37.505" y="0">PÉRIMÈTRE</tspan></text><rect class="j" width="187.5" height="2" transform="translate(6089.5 1529)"/><g transform="translate(6063 1668)"><path class="k" d="M37,10a6.957,6.957,0,0,1-7,7H10a6.957,6.957,0,0,1-7-7H3a6.957,6.957,0,0,1,7-7H30a6.957,6.957,0,0,1,7,7Z" transform="translate(322 42)"/><g class="o" transform="matrix(1, 0, 0, 1, -6063, -1668)"><path class="l" d="M10,0A10,10,0,1,1,0,10,10,10,0,0,1,10,0Z" transform="translate(6405 1710)"/></g></g><text class="m" transform="translate(6130 1710)"><tspan x="0" y="15">Mes alertes</tspan></text><text class="m" transform="translate(6130 1586)"><tspan x="0" y="15">Souhaites tu recevoir des alertes par </tspan><tspan x="0" y="34">mail pour ne rien manquer ? </tspan></text><g transform="translate(6395 2049)"><path class="d" d="M0,0H30V30H0Z"/><path class="j" d="M23.72,15.725a9.741,9.741,0,0,0,.087-1.225,9.741,9.741,0,0,0-.087-1.225l2.638-2.062a.631.631,0,0,0,.15-.8l-2.5-4.325a.628.628,0,0,0-.763-.275l-3.113,1.25A9.133,9.133,0,0,0,18.02,5.838l-.475-3.312A.61.61,0,0,0,16.932,2h-5a.61.61,0,0,0-.612.525l-.475,3.312A9.6,9.6,0,0,0,8.732,7.063L5.62,5.813a.61.61,0,0,0-.763.275l-2.5,4.325a.616.616,0,0,0,.15.8l2.638,2.063A9.913,9.913,0,0,0,5.057,14.5a9.913,9.913,0,0,0,.088,1.225L2.507,17.787a.631.631,0,0,0-.15.8l2.5,4.325a.628.628,0,0,0,.763.275l3.113-1.25a9.133,9.133,0,0,0,2.113,1.225l.475,3.313a.61.61,0,0,0,.612.525h5a.61.61,0,0,0,.612-.525l.475-3.312a9.6,9.6,0,0,0,2.112-1.225l3.113,1.25a.61.61,0,0,0,.763-.275l2.5-4.325a.631.631,0,0,0-.15-.8Zm-9.288,3.15A4.375,4.375,0,1,1,18.807,14.5,4.38,4.38,0,0,1,14.432,18.875Z" transform="translate(0.568 0.5)"/></g></g></svg>