<svg xmlns="http://www.w3.org/2000/svg" xmlns:xlink="http://www.w3.org/1999/xlink" viewBox="5670 711 375 667"><defs><style>.a{clip-path:url(#p);}.b{fill:#fbc02d;}.c{fill:#bf9322;}.d,.m{fill:none;}.e,.n,.o,.p{fill:#fff;}.f,.g{fill:#3b3b3b;}.f{font-size:16px;}.f,.n{font-family:Roboto-Regular, Roboto;}.g,.n{font-size:20px;}.g,.p{font-family:Roboto-Medium, Roboto;font-weight:500;}.h{fill:#f2f2f2;}.i{fill:#039be5;}.j{fill:#b3b3b3;}.k,.l{fill:#01579b;}.l,.m,.o{fill-rule:evenodd;}.p{font-size:14px;}.q{filter:url(#m);}.r{filter:url(#k);}.s{filter:url(#i);}.t{filter:url(#g);}.u{filter:url(#e);}.v{filter:url(#c);}.w{filter:url(#a);}</style><filter id="a" x="5965" y="929" width="63" height="63" filterUnits="userSpaceOnUse"><feOffset dy="3" input="SourceAlpha"/><feGaussianBlur stdDeviation="3" result="b"/><feFlood flood-opacity="0.161"/><feComposite operator="in" in2="b"/><feComposite in="SourceGraphic"/></filter><filter id="c" x="5836" y="929" width="63" height="63" filterUnits="userSpaceOnUse"><feOffset dy="3" input="SourceAlpha"/><feGaussianBlur stdDeviation="3" result="d"/><feFlood flood-opacity="0.161"/><feComposite operator="in" in2="d"/><feComposite in="SourceGraphic"/></filter><filter id="e" x="5786" y="929" width="63" height="63" filterUnits="userSpaceOnUse"><feOffset dy="3" input="SourceAlpha"/><feGaussianBlur stdDeviation="3" result="f"/><feFlood flood-opacity="0.161"/><feComposite operator="in" in2="f"/><feComposite in="SourceGraphic"/></filter><filter id="g" x="5736" y="929" width="63" height="63" filterUnits="userSpaceOnUse"><feOffset dy="3" input="SourceAlpha"/><feGaussianBlur stdDeviation="3" result="h"/><feFlood flood-opacity="0.161"/><feComposite operator="in" in2="h"/><feComposite in="SourceGraphic"/></filter><filter id="i" x="5686" y="929" width="63" height="63" filterUnits="userSpaceOnUse"><feOffset dy="3" input="SourceAlpha"/><feGaussianBlur stdDeviation="3" result="j"/><feFlood flood-opacity="0.161"/><feComposite operator="in" in2="j"/><feComposite in="SourceGraphic"/></filter><filter id="k" x="5886" y="929" width="63" height="63" filterUnits="userSpaceOnUse"><feOffset dy="3" input="SourceAlpha"/><feGaussianBlur stdDeviation="3" result="l"/><feFlood flood-opacity="0.161"/><feComposite operator="in" in2="l"/><feComposite in="SourceGraphic"/></filter><filter id="m" x="5664" y="709" width="387" height="116" filterUnits="userSpaceOnUse"><feOffset dy="4" input="SourceAlpha"/><feGaussianBlur stdDeviation="2" result="n"/><feFlood flood-opacity="0.239"/><feComposite operator="in" in2="n"/><feComposite in="SourceGraphic"/></filter><clipPath id="p"><rect x="5670" y="711" width="375" height="667"/></clipPath></defs><g id="o" class="a"><rect class="h" x="5670" y="711" width="375" height="667"/><rect class="b" width="375" height="60" transform="translate(5670 1318)"/><g transform="translate(5710 1333)"><path class="c" d="M14.5,2A12.5,12.5,0,1,0,27,14.5,12.5,12.5,0,0,0,14.5,2Zm0,3.75A3.75,3.75,0,1,1,10.75,9.5,3.745,3.745,0,0,1,14.5,5.75Zm0,17.75A9,9,0,0,1,7,19.475c.038-2.488,5-3.85,7.5-3.85s7.462,1.362,7.5,3.85A9,9,0,0,1,14.5,23.5Z" transform="translate(0.5 0.5)"/><path class="d" d="M0,0H30V30H0Z"/></g><g transform="translate(5838 1328)"><path class="d" d="M0,0H40V40H0Z"/><path class="c" d="M7,2V20.333h5v15l11.667-20H17L23.667,2Z" transform="translate(4.667 1.333)"/></g><g transform="translate(5909 1333)"><path class="d" d="M0,0H30V30H0Z"/><path class="e" d="M16,3A11.251,11.251,0,0,0,4.75,14.25H1l4.863,4.863.088.175L11,14.25H7.25a8.792,8.792,0,1,1,2.575,6.175L8.05,22.2A11.247,11.247,0,1,0,16,3ZM14.75,9.25V15.5l5.35,3.175.9-1.513-4.375-2.6V9.25Z" transform="translate(0.25 0.75)"/></g><g transform="translate(5776 1333)"><path class="c" d="M18.625,16.75h-.987l-.35-.337a8.137,8.137,0,1,0-.875.875l.337.35v.987L23,24.863,24.863,23Zm-7.5,0a5.625,5.625,0,1,1,5.625-5.625A5.617,5.617,0,0,1,11.125,16.75Z" transform="translate(0.75 0.75)"/><path class="d" d="M0,0H30V30H0Z"/></g><path class="e" d="M0,0H365V180H0Z" transform="translate(5675 820)"/><g class="w" transform="matrix(1, 0, 0, 1, 0, 0)"><path class="b" d="M22.5,0A22.5,22.5,0,1,1,0,22.5,22.5,22.5,0,0,1,22.5,0Z" transform="translate(5974 935)"/></g><text class="f" transform="translate(5695 876)"><tspan x="0" y="15">Visité le 27/11/2016</tspan></text><text class="g" transform="translate(5695 840)"><tspan x="0" y="19">Musée imprimerie </tspan></text><g transform="translate(5970 830)"><path class="d" d="M0,0H60V60H0Z"/><path class="h" d="M14.5,30.5A7.49,7.49,0,0,0,7,38a5.073,5.073,0,0,1-5,5,12.935,12.935,0,0,0,10,5A10,10,0,0,0,22,38,7.49,7.49,0,0,0,14.5,30.5ZM48.775,7.079l-3.35-3.35a2.49,2.49,0,0,0-3.525,0l-22.4,22.4L26.375,33l22.4-22.4A2.49,2.49,0,0,0,48.775,7.079Z" transform="translate(3 4.496)"/></g><g transform="translate(5655 759)"><g class="v" transform="matrix(1, 0, 0, 1, -5655, -759)"><rect class="i" width="45" height="45" rx="22.5" transform="translate(5845 935)"/></g><g transform="translate(201 187)"><path class="d" d="M0,0H24V24H0Z"/><path class="e" d="M7,2V13h3v9l7-12H13l4-8Z"/></g></g><g transform="translate(5660 759)"><g class="u" transform="matrix(1, 0, 0, 1, -5660, -759)"><rect class="i" width="45" height="45" rx="22.5" transform="translate(5795 935)"/></g><g transform="translate(146 187)"><path class="d" d="M0,0H24V24H0Z"/><path class="e" d="M7,2V13h3v9l7-12H13l4-8Z"/></g></g><g transform="translate(5665 759)"><g class="t" transform="matrix(1, 0, 0, 1, -5665, -759)"><rect class="i" width="45" height="45" rx="22.5" transform="translate(5745 935)"/></g><g transform="translate(91 187)"><path class="d" d="M0,0H24V24H0Z"/><path class="e" d="M7,2V13h3v9l7-12H13l4-8Z"/></g></g><g transform="translate(5670 759)"><g class="s" transform="matrix(1, 0, 0, 1, -5670, -759)"><rect class="i" width="45" height="45" rx="22.5" transform="translate(5695 935)"/></g><g transform="translate(36 187)"><path class="d" d="M0,0H24V24H0Z"/><path class="e" d="M7,2V13h3v9l7-12H13l4-8Z"/></g></g><g transform="translate(5650 759)"><g class="r" transform="matrix(1, 0, 0, 1, -5650, -759)"><rect class="h" width="45" height="45" rx="22.5" transform="translate(5895 935)"/></g><g transform="translate(256 187)"><path class="d" d="M0,0H24V24H0Z"/><path class="j" d="M7,2V13h3v9l7-12H13l4-8Z"/></g></g><g transform="translate(5983 946)"><path class="d" d="M0,0H24V24H0Z"/><path class="e" d="M18,16.08a2.912,2.912,0,0,0-1.96.77L8.91,12.7A3.274,3.274,0,0,0,9,12a3.274,3.274,0,0,0-.09-.7l7.05-4.11A2.993,2.993,0,1,0,15,5a3.274,3.274,0,0,0,.09.7L8.04,9.81a3,3,0,1,0,0,4.38l7.12,4.16a2.821,2.821,0,0,0-.08.65A2.92,2.92,0,1,0,18,16.08Z"/></g><g class="q" transform="matrix(1, 0, 0, 1, 0, 0)"><path class="k" d="M0,0H375V104H0Z" transform="translate(5670 711)"/></g><path class="l" d="M375,0H0V56H375Z" transform="translate(5670 711)"/><path class="m" d="M12,0H0V-24H12Z" transform="translate(6002 751)"/><text class="n" transform="translate(5710 746)"><tspan x="0" y="0">Historique</tspan></text><rect class="d" width="24" height="24" transform="translate(5686 727)"/><path class="o" d="M6-16a2.006,2.006,0,0,0,2-2,2.006,2.006,0,0,0-2-2,2.006,2.006,0,0,0-2,2,2.006,2.006,0,0,0,2,2Zm0,2a2.006,2.006,0,0,0-2,2,2.006,2.006,0,0,0,2,2,2.006,2.006,0,0,0,2-2,2.006,2.006,0,0,0-2-2ZM6-8A2.006,2.006,0,0,0,4-6,2.006,2.006,0,0,0,6-4,2.006,2.006,0,0,0,8-6,2.006,2.006,0,0,0,6-8Z" transform="translate(6017 751)"/><rect class="d" width="56" height="56" transform="translate(5989 711)"/><text class="p" transform="translate(5769.5 799.979)"><tspan x="-27.47" y="0">FAVORIS</tspan></text><text class="p" transform="translate(5956.5 799.979)"><tspan x="-25.037" y="0">VISITÉS</tspan></text><rect class="e" width="187.5" height="2" transform="translate(5857.5 813)"/><g transform="translate(5670 711)"><g transform="translate(305 622)"><path class="d" d="M0,0H30V30H0Z"/><path class="c" d="M23.72,15.725a9.741,9.741,0,0,0,.087-1.225,9.741,9.741,0,0,0-.087-1.225l2.638-2.062a.631.631,0,0,0,.15-.8l-2.5-4.325a.628.628,0,0,0-.763-.275l-3.113,1.25A9.133,9.133,0,0,0,18.02,5.838l-.475-3.312A.61.61,0,0,0,16.932,2h-5a.61.61,0,0,0-.612.525l-.475,3.312A9.6,9.6,0,0,0,8.732,7.063L5.62,5.813a.61.61,0,0,0-.763.275l-2.5,4.325a.616.616,0,0,0,.15.8l2.638,2.063A9.913,9.913,0,0,0,5.057,14.5a9.913,9.913,0,0,0,.088,1.225L2.507,17.787a.631.631,0,0,0-.15.8l2.5,4.325a.628.628,0,0,0,.763.275l3.113-1.25a9.133,9.133,0,0,0,2.113,1.225l.475,3.313a.61.61,0,0,0,.612.525h5a.61.61,0,0,0,.612-.525l.475-3.312a9.6,9.6,0,0,0,2.112-1.225l3.113,1.25a.61.61,0,0,0,.763-.275l2.5-4.325a.631.631,0,0,0-.15-.8Zm-9.288,3.15A4.375,4.375,0,1,1,18.807,14.5,4.38,4.38,0,0,1,14.432,18.875Z" transform="translate(0.568 0.5)"/></g></g></g></svg>