<svg xmlns="http://www.w3.org/2000/svg" xmlns:xlink="http://www.w3.org/1999/xlink" viewBox="5187 2138 375 667"><defs><style>.a{clip-path:url(#g);}.b{fill:#fbc02d;}.c,.j,.k{fill:#fff;}.d,.g{fill:none;}.e{fill:#bf9322;}.f{fill:#01579b;}.f,.g{fill-rule:evenodd;}.h{fill:#f2f2f2;}.i{fill:gray;}.j{font-size:50px;font-family:Roboto-Black, Roboto;font-weight:800;}.k{font-size:14px;font-family:Roboto-Bold, Roboto;font-weight:700;}.l{fill:url(#a);}.m{filter:url(#d);}.n{filter:url(#b);}</style><linearGradient id="a" x2="1" y2="1" gradientUnits="objectBoundingBox"><stop offset="0" stop-color="#039be5"/><stop offset="1" stop-color="#0085c6"/></linearGradient><filter id="b" x="5468" y="2414" width="63" height="63" filterUnits="userSpaceOnUse"><feOffset dy="3" input="SourceAlpha"/><feGaussianBlur stdDeviation="3" result="c"/><feFlood flood-opacity="0.161"/><feComposite operator="in" in2="c"/><feComposite in="SourceGraphic"/></filter><filter id="d" x="5343" y="2413" width="63" height="63" filterUnits="userSpaceOnUse"><feOffset dy="3" input="SourceAlpha"/><feGaussianBlur stdDeviation="3" result="e"/><feFlood flood-opacity="0.161"/><feComposite operator="in" in2="e"/><feComposite in="SourceGraphic"/></filter><clipPath id="g"><rect x="5187" y="2138" width="375" height="667"/></clipPath></defs><g id="f" class="a"><rect class="l" x="5187" y="2138" width="375" height="667"/><rect class="b" width="375" height="60" transform="translate(5187 2745)"/><g transform="translate(5227 2760)"><path class="c" d="M14.5,2A12.5,12.5,0,1,0,27,14.5,12.5,12.5,0,0,0,14.5,2Zm0,3.75A3.75,3.75,0,1,1,10.75,9.5,3.745,3.745,0,0,1,14.5,5.75Zm0,17.75A9,9,0,0,1,7,19.475c.038-2.488,5-3.85,7.5-3.85s7.462,1.362,7.5,3.85A9,9,0,0,1,14.5,23.5Z" transform="translate(0.5 0.5)"/><path class="d" d="M0,0H30V30H0Z"/></g><g transform="translate(5355 2755)"><path class="d" d="M0,0H40V40H0Z"/><path class="e" d="M7,2V20.333h5v15l11.667-20H17L23.667,2Z" transform="translate(4.667 1.333)"/></g><g transform="translate(5426 2760)"><path class="d" d="M0,0H30V30H0Z"/><path class="e" d="M16,3A11.251,11.251,0,0,0,4.75,14.25H1l4.863,4.863.088.175L11,14.25H7.25a8.792,8.792,0,1,1,2.575,6.175L8.05,22.2A11.247,11.247,0,1,0,16,3ZM14.75,9.25V15.5l5.35,3.175.9-1.513-4.375-2.6V9.25Z" transform="translate(0.25 0.75)"/></g><g transform="translate(5293 2760)"><path class="e" d="M18.625,16.75h-.987l-.35-.337a8.137,8.137,0,1,0-.875.875l.337.35v.987L23,24.863,24.863,23Zm-7.5,0a5.625,5.625,0,1,1,5.625-5.625A5.617,5.617,0,0,1,11.125,16.75Z" transform="translate(0.75 0.75)"/><path class="d" d="M0,0H30V30H0Z"/></g><rect class="c" width="323.5" height="5" transform="translate(5186.5 2740)"/><path class="f" d="M375,0H0V304H375Z" transform="translate(5187 2138)"/><path class="g" d="M375,0H0V304H375Z" transform="translate(5187 2441)"/><g class="n" transform="matrix(1, 0, 0, 1, 0, 0)"><rect class="h" width="45" height="45" rx="22.5" transform="translate(5477 2420)"/></g><g transform="translate(5488 2431)"><path class="i" d="M19,6.41,17.59,5,12,10.59,6.41,5,5,6.41,10.59,12,5,17.59,6.41,19,12,13.41,17.59,19,19,17.59,13.41,12Z"/><path class="d" d="M0,0H24V24H0Z"/></g><text class="j" transform="translate(5375 2278)"><tspan x="-126.074" y="0">SALVADOR</tspan><tspan x="-54.028" y="58">DALI</tspan></text><text class="j" transform="translate(5375 2581)"><tspan x="-95.715" y="0">MARTIN</tspan><tspan x="-124.902" y="58">SCORSESE</tspan></text><g transform="translate(5219 2138)"><g class="m" transform="matrix(1, 0, 0, 1, -5219, -2138)"><rect class="b" width="45" height="45" rx="22.5" transform="translate(5352 2419)"/></g><text class="k" transform="translate(156 309)"><tspan x="-9.44" y="0">OU</tspan></text></g><g transform="translate(5187 2138)"><g transform="translate(305 622)"><path class="d" d="M0,0H30V30H0Z"/><path class="e" d="M23.72,15.725a9.741,9.741,0,0,0,.087-1.225,9.741,9.741,0,0,0-.087-1.225l2.638-2.062a.631.631,0,0,0,.15-.8l-2.5-4.325a.628.628,0,0,0-.763-.275l-3.113,1.25A9.133,9.133,0,0,0,18.02,5.838l-.475-3.312A.61.61,0,0,0,16.932,2h-5a.61.61,0,0,0-.612.525l-.475,3.312A9.6,9.6,0,0,0,8.732,7.063L5.62,5.813a.61.61,0,0,0-.763.275l-2.5,4.325a.616.616,0,0,0,.15.8l2.638,2.063A9.913,9.913,0,0,0,5.057,14.5a9.913,9.913,0,0,0,.088,1.225L2.507,17.787a.631.631,0,0,0-.15.8l2.5,4.325a.628.628,0,0,0,.763.275l3.113-1.25a9.133,9.133,0,0,0,2.113,1.225l.475,3.313a.61.61,0,0,0,.612.525h5a.61.61,0,0,0,.612-.525l.475-3.312a9.6,9.6,0,0,0,2.112-1.225l3.113,1.25a.61.61,0,0,0,.763-.275l2.5-4.325a.631.631,0,0,0-.15-.8Zm-9.288,3.15A4.375,4.375,0,1,1,18.807,14.5,4.38,4.38,0,0,1,14.432,18.875Z" transform="translate(0.568 0.5)"/></g></g></g></svg>